<svg width="601" height="318" viewBox="0 0 601 318" fill="none" xmlns="http://www.w3.org/2000/svg">
<path d="M0.988636 6.15838V0.636363H30.0014V6.15838H18.7621V37H12.228V6.15838H0.988636ZM32.4783 37V9.72727H38.7106V14.2727H38.9947C39.4918 12.6984 40.3441 11.4851 41.5515 10.6328C42.7707 9.7687 44.1616 9.33665 45.7241 9.33665C46.0792 9.33665 46.4757 9.3544 46.9137 9.38991C47.3635 9.41359 47.7364 9.45502 48.0323 9.5142V15.4268C47.7601 15.3321 47.328 15.2493 46.7362 15.1783C46.1561 15.0954 45.5939 15.054 45.0494 15.054C43.8775 15.054 42.824 15.3085 41.8888 15.8175C40.9656 16.3146 40.2376 17.0071 39.7049 17.8949C39.1722 18.7827 38.9059 19.8066 38.9059 20.9666V37H32.4783ZM59.6623 37.5504C57.9341 37.5504 56.3775 37.2427 54.9925 36.6271C53.6194 35.9998 52.5304 35.0765 51.7255 33.8572C50.9324 32.638 50.5359 31.1347 50.5359 29.3473C50.5359 27.8085 50.82 26.536 51.3881 25.5298C51.9563 24.5237 52.7317 23.7188 53.7141 23.1151C54.6966 22.5114 55.8034 22.0556 57.0344 21.7479C58.2773 21.4283 59.5617 21.1974 60.8874 21.0554C62.4854 20.8897 63.7816 20.7417 64.7759 20.6115C65.7702 20.4695 66.4923 20.2564 66.9421 19.9723C67.4038 19.6764 67.6346 19.2206 67.6346 18.6051V18.4986C67.6346 17.161 67.238 16.1252 66.445 15.3913C65.6519 14.6574 64.5096 14.2905 63.0181 14.2905C61.4438 14.2905 60.195 14.6338 59.2717 15.3203C58.3602 16.0069 57.7447 16.8177 57.4251 17.7528L51.4237 16.9006C51.8971 15.2434 52.6784 13.8584 53.7674 12.7457C54.8564 11.6212 56.1881 10.7808 57.7624 10.2244C59.3368 9.65625 61.0768 9.37216 62.9826 9.37216C64.2965 9.37216 65.6045 9.52604 66.9066 9.83381C68.2087 10.1416 69.3983 10.6506 70.4755 11.3608C71.5527 12.0592 72.4168 13.0121 73.0678 14.2195C73.7307 15.4268 74.0621 16.9361 74.0621 18.7472V37H67.8832V33.2536H67.6701C67.2795 34.0111 66.729 34.7214 66.0188 35.3842C65.3204 36.0353 64.4386 36.562 63.3732 36.9645C62.3197 37.3551 61.0827 37.5504 59.6623 37.5504ZM61.3313 32.8274C62.6216 32.8274 63.7402 32.5729 64.6871 32.0639C65.6341 31.5431 66.3621 30.8565 66.8711 30.0043C67.3919 29.152 67.6523 28.2228 67.6523 27.2166V24.0028C67.4511 24.1686 67.1078 24.3224 66.6225 24.4645C66.149 24.6065 65.6164 24.7308 65.0245 24.8374C64.4326 24.9439 63.8467 25.0386 63.2667 25.1214C62.6867 25.2043 62.1836 25.2753 61.7575 25.3345C60.7987 25.4647 59.9405 25.6778 59.1829 25.9737C58.4253 26.2696 57.8275 26.6839 57.3896 27.2166C56.9516 27.7375 56.7326 28.4122 56.7326 29.2408C56.7326 30.4245 57.1647 31.3182 58.0288 31.9219C58.8929 32.5256 59.9937 32.8274 61.3313 32.8274ZM92.4215 37.5327C89.699 37.5327 87.3612 36.9349 85.408 35.7393C83.4667 34.5438 81.9693 32.8925 80.9158 30.7855C79.8742 28.6667 79.3533 26.2282 79.3533 23.4702C79.3533 20.7003 79.886 18.2559 80.9513 16.1371C82.0167 14.0064 83.52 12.3492 85.4613 11.1655C87.4144 9.96993 89.7227 9.37216 92.386 9.37216C94.5996 9.37216 96.5586 9.78054 98.2631 10.5973C99.9795 11.4022 101.347 12.5445 102.365 14.0241C103.383 15.492 103.963 17.2083 104.105 19.1733H97.9613C97.7127 17.8594 97.1209 16.7644 96.1857 15.8885C95.2624 15.0007 94.0254 14.5568 92.4748 14.5568C91.1609 14.5568 90.0067 14.9119 89.0124 15.6222C88.0181 16.3205 87.2428 17.3267 86.6864 18.6406C86.1419 19.9545 85.8697 21.5289 85.8697 23.3636C85.8697 25.2221 86.1419 26.8201 86.6864 28.1577C87.2309 29.4834 87.9944 30.5073 88.9769 31.2294C89.9712 31.9396 91.1372 32.2947 92.4748 32.2947C93.4218 32.2947 94.2681 32.1172 95.0138 31.7621C95.7714 31.3951 96.4047 30.8684 96.9137 30.1818C97.4227 29.4953 97.7719 28.6607 97.9613 27.6783H104.105C103.951 29.6077 103.383 31.3182 102.4 32.8097C101.418 34.2893 100.08 35.4493 98.3874 36.2898C96.6947 37.1184 94.7061 37.5327 92.4215 37.5327ZM115.242 28.4418L115.224 20.6825H116.254L126.055 9.72727H133.566L121.51 23.1506H120.178L115.242 28.4418ZM109.383 37V0.636363H115.81V37H109.383ZM126.499 37L117.621 24.5888L121.954 20.0611L134.187 37H126.499ZM154.247 47.2273C153.371 47.2273 152.56 47.1563 151.814 47.0142C151.08 46.884 150.494 46.7301 150.056 46.5526L151.548 41.5455C152.483 41.8177 153.318 41.9479 154.051 41.9361C154.785 41.9242 155.431 41.6934 155.987 41.2436C156.555 40.8056 157.034 40.0717 157.425 39.0419L157.975 37.5682L148.086 9.72727H154.904L161.189 30.3239H161.473L167.777 9.72727H174.613L163.693 40.3026C163.184 41.7467 162.509 42.9837 161.669 44.0135C160.828 45.0552 159.798 45.8482 158.579 46.3928C157.372 46.9491 155.928 47.2273 154.247 47.2273ZM190.029 37.5327C187.366 37.5327 185.057 36.9467 183.104 35.7749C181.151 34.603 179.636 32.9635 178.559 30.8565C177.493 28.7495 176.961 26.2874 176.961 23.4702C176.961 20.6529 177.493 18.1849 178.559 16.0661C179.636 13.9472 181.151 12.3018 183.104 11.13C185.057 9.9581 187.366 9.37216 190.029 9.37216C192.692 9.37216 195.001 9.9581 196.954 11.13C198.907 12.3018 200.416 13.9472 201.481 16.0661C202.559 18.1849 203.097 20.6529 203.097 23.4702C203.097 26.2874 202.559 28.7495 201.481 30.8565C200.416 32.9635 198.907 34.603 196.954 35.7749C195.001 36.9467 192.692 37.5327 190.029 37.5327ZM190.064 32.3835C191.509 32.3835 192.716 31.987 193.687 31.1939C194.657 30.389 195.379 29.3118 195.853 27.9624C196.338 26.6129 196.581 25.1096 196.581 23.4524C196.581 21.7834 196.338 20.2741 195.853 18.9247C195.379 17.5634 194.657 16.4804 193.687 15.6754C192.716 14.8705 191.509 14.468 190.064 14.468C188.585 14.468 187.354 14.8705 186.371 15.6754C185.401 16.4804 184.673 17.5634 184.187 18.9247C183.714 20.2741 183.477 21.7834 183.477 23.4524C183.477 25.1096 183.714 26.6129 184.187 27.9624C184.673 29.3118 185.401 30.389 186.371 31.1939C187.354 31.987 188.585 32.3835 190.064 32.3835ZM225.935 25.5298V9.72727H232.363V37H226.131V32.1527H225.847C225.231 33.6797 224.219 34.9285 222.81 35.8991C221.414 36.8698 219.691 37.3551 217.643 37.3551C215.856 37.3551 214.276 36.9586 212.903 36.1655C211.541 35.3606 210.476 34.1946 209.707 32.6676C208.937 31.1288 208.553 29.2704 208.553 27.0923V9.72727H214.98V26.098C214.98 27.8262 215.454 29.1993 216.401 30.2173C217.348 31.2353 218.59 31.7443 220.129 31.7443C221.076 31.7443 221.994 31.5135 222.881 31.0518C223.769 30.5902 224.497 29.9036 225.065 28.9922C225.645 28.0689 225.935 26.9148 225.935 25.5298ZM238.972 37V9.72727H245.205V14.2727H245.489C245.986 12.6984 246.838 11.4851 248.046 10.6328C249.265 9.7687 250.656 9.33665 252.218 9.33665C252.573 9.33665 252.97 9.3544 253.408 9.38991C253.858 9.41359 254.231 9.45502 254.526 9.5142V15.4268C254.254 15.3321 253.822 15.2493 253.23 15.1783C252.65 15.0954 252.088 15.054 251.544 15.054C250.372 15.054 249.318 15.3085 248.383 15.8175C247.46 16.3146 246.732 17.0071 246.199 17.8949C245.666 18.7827 245.4 19.8066 245.4 20.9666V37H238.972ZM493.589 32.0284L493.358 33.9815C493.192 35.473 492.896 36.9882 492.47 38.527C492.056 40.0777 491.618 41.504 491.156 42.8061C490.695 44.1082 490.322 45.1321 490.038 45.8778H485.705C485.871 45.1558 486.096 44.1733 486.38 42.9304C486.676 41.6875 486.96 40.2907 487.232 38.7401C487.505 37.1894 487.688 35.6151 487.783 34.017L487.907 32.0284H493.589ZM519.916 37.5504C518.188 37.5504 516.631 37.2427 515.246 36.6271C513.873 35.9998 512.784 35.0765 511.979 33.8572C511.186 32.638 510.79 31.1347 510.79 29.3473C510.79 27.8085 511.074 26.536 511.642 25.5298C512.21 24.5237 512.986 23.7188 513.968 23.1151C514.951 22.5114 516.057 22.0556 517.288 21.7479C518.531 21.4283 519.816 21.1974 521.141 21.0554C522.739 20.8897 524.036 20.7417 525.03 20.6115C526.024 20.4695 526.746 20.2564 527.196 19.9723C527.658 19.6764 527.888 19.2206 527.888 18.6051V18.4986C527.888 17.161 527.492 16.1252 526.699 15.3913C525.906 14.6574 524.763 14.2905 523.272 14.2905C521.698 14.2905 520.449 14.6338 519.526 15.3203C518.614 16.0069 517.999 16.8177 517.679 17.7528L511.678 16.9006C512.151 15.2434 512.932 13.8584 514.021 12.7457C515.11 11.6212 516.442 10.7808 518.016 10.2244C519.591 9.65625 521.331 9.37216 523.237 9.37216C524.55 9.37216 525.858 9.52604 527.161 9.83381C528.463 10.1416 529.652 10.6506 530.729 11.3608C531.807 12.0592 532.671 13.0121 533.322 14.2195C533.985 15.4268 534.316 16.9361 534.316 18.7472V37H528.137V33.2536H527.924C527.533 34.0111 526.983 34.7214 526.273 35.3842C525.574 36.0353 524.692 36.562 523.627 36.9645C522.574 37.3551 521.337 37.5504 519.916 37.5504ZM521.585 32.8274C522.875 32.8274 523.994 32.5729 524.941 32.0639C525.888 31.5431 526.616 30.8565 527.125 30.0043C527.646 29.152 527.906 28.2228 527.906 27.2166V24.0028C527.705 24.1686 527.362 24.3224 526.876 24.4645C526.403 24.6065 525.87 24.7308 525.278 24.8374C524.687 24.9439 524.101 25.0386 523.521 25.1214C522.941 25.2043 522.438 25.2753 522.011 25.3345C521.053 25.4647 520.194 25.6778 519.437 25.9737C518.679 26.2696 518.081 26.6839 517.643 27.2166C517.205 27.7375 516.987 28.4122 516.987 29.2408C516.987 30.4245 517.419 31.3182 518.283 31.9219C519.147 32.5256 520.248 32.8274 521.585 32.8274ZM547.207 21.0199V37H540.779V9.72727H546.923V14.3615H547.242C547.87 12.8345 548.87 11.6212 550.243 10.7216C551.628 9.82197 553.338 9.37216 555.374 9.37216C557.256 9.37216 558.896 9.77462 560.293 10.5795C561.701 11.3845 562.79 12.5504 563.56 14.0774C564.341 15.6044 564.726 17.4569 564.714 19.6349V37H558.286V20.6293C558.286 18.8063 557.813 17.38 556.866 16.3501C555.931 15.3203 554.634 14.8054 552.977 14.8054C551.853 14.8054 550.853 15.054 549.977 15.5511C549.112 16.0365 548.432 16.7408 547.935 17.6641C547.449 18.5874 547.207 19.706 547.207 21.0199ZM581.369 37.4794C579.226 37.4794 577.308 36.929 575.616 35.8281C573.923 34.7273 572.585 33.1293 571.603 31.0341C570.621 28.9389 570.129 26.3939 570.129 23.3991C570.129 20.3688 570.626 17.812 571.621 15.7287C572.627 13.6335 573.982 12.0533 575.687 10.9879C577.391 9.91075 579.291 9.37216 581.386 9.37216C582.984 9.37216 584.298 9.64441 585.328 10.1889C586.358 10.7216 587.175 11.3667 587.778 12.1243C588.382 12.87 588.85 13.5743 589.181 14.2372H589.447V0.636363H595.893V37H589.572V32.7031H589.181C588.85 33.366 588.37 34.0703 587.743 34.8161C587.116 35.55 586.287 36.1773 585.257 36.6982C584.227 37.219 582.931 37.4794 581.369 37.4794ZM583.162 32.206C584.523 32.206 585.683 31.839 586.642 31.1051C587.601 30.3594 588.329 29.3236 588.826 27.9979C589.323 26.6721 589.572 25.1274 589.572 23.3636C589.572 21.5999 589.323 20.067 588.826 18.7649C588.341 17.4628 587.619 16.4508 586.66 15.7287C585.713 15.0066 584.547 14.6456 583.162 14.6456C581.73 14.6456 580.534 15.0185 579.575 15.7642C578.616 16.5099 577.894 17.5398 577.409 18.8537C576.924 20.1676 576.681 21.6709 576.681 23.3636C576.681 25.0682 576.924 26.5893 577.409 27.9268C577.906 29.2526 578.634 30.3002 579.593 31.0696C580.564 31.8272 581.753 32.206 583.162 32.206ZM2.30256 127V99.7273H8.5348V104.273H8.81889C9.31605 102.698 10.1683 101.485 11.3757 100.633C12.5949 99.7687 13.9858 99.3366 15.5483 99.3366C15.9034 99.3366 16.3 99.3544 16.7379 99.3899C17.1877 99.4136 17.5606 99.455 17.8565 99.5142V105.427C17.5843 105.332 17.1522 105.249 16.5604 105.178C15.9804 105.095 15.4181 105.054 14.8736 105.054C13.7017 105.054 12.6482 105.308 11.7131 105.817C10.7898 106.315 10.0618 107.007 9.52912 107.895C8.99645 108.783 8.73011 109.807 8.73011 110.967V127H2.30256ZM33.0776 127.533C30.3432 127.533 27.9817 126.964 25.9931 125.828C24.0163 124.68 22.4952 123.058 21.4299 120.963C20.3645 118.856 19.8319 116.376 19.8319 113.523C19.8319 110.718 20.3645 108.256 21.4299 106.137C22.507 104.006 24.0104 102.349 25.9398 101.165C27.8693 99.9699 30.1361 99.3722 32.7402 99.3722C34.4211 99.3722 36.0073 99.6444 37.4988 100.189C39.0021 100.722 40.3278 101.55 41.476 102.675C42.6361 103.799 43.5475 105.232 44.2104 106.972C44.8733 108.7 45.2047 110.759 45.2047 113.151V115.121H22.8503V110.789H39.0435C39.0317 109.558 38.7653 108.463 38.2445 107.504C37.7237 106.534 36.9957 105.77 36.0605 105.214C35.1373 104.657 34.0601 104.379 32.829 104.379C31.5151 104.379 30.361 104.699 29.3667 105.338C28.3723 105.965 27.597 106.794 27.0407 107.824C26.4962 108.842 26.218 109.96 26.2061 111.18V114.962C26.2061 116.548 26.4962 117.909 27.0762 119.045C27.6562 120.17 28.467 121.034 29.5087 121.638C30.5504 122.23 31.7696 122.526 33.1664 122.526C34.1015 122.526 34.9479 122.395 35.7054 122.135C36.463 121.863 37.12 121.466 37.6763 120.945C38.2327 120.424 38.6529 119.779 38.937 119.01L44.9384 119.685C44.5596 121.271 43.8375 122.656 42.7722 123.839C41.7187 125.011 40.3693 125.923 38.7239 126.574C37.0785 127.213 35.1964 127.533 33.0776 127.533ZM62.5387 127.533C59.8162 127.533 57.4783 126.935 55.5252 125.739C53.5839 124.544 52.0865 122.893 51.033 120.786C49.9914 118.667 49.4705 116.228 49.4705 113.47C49.4705 110.7 50.0032 108.256 51.0685 106.137C52.1339 104.006 53.6372 102.349 55.5785 101.165C57.5316 99.9699 59.8398 99.3722 62.5032 99.3722C64.7167 99.3722 66.6758 99.7805 68.3803 100.597C70.0967 101.402 71.4639 102.545 72.4819 104.024C73.4999 105.492 74.0799 107.208 74.2219 109.173H68.0785C67.8299 107.859 67.238 106.764 66.3029 105.888C65.3796 105.001 64.1426 104.557 62.592 104.557C61.2781 104.557 60.1239 104.912 59.1296 105.622C58.1353 106.321 57.36 107.327 56.8036 108.641C56.2591 109.955 55.9869 111.529 55.9869 113.364C55.9869 115.222 56.2591 116.82 56.8036 118.158C57.3481 119.483 58.1116 120.507 59.0941 121.229C60.0884 121.94 61.2544 122.295 62.592 122.295C63.5389 122.295 64.3853 122.117 65.131 121.762C65.8886 121.395 66.5219 120.868 67.0309 120.182C67.5399 119.495 67.8891 118.661 68.0785 117.678H74.2219C74.0681 119.608 73.4999 121.318 72.5174 122.81C71.5349 124.289 70.1973 125.449 68.5046 126.29C66.8119 127.118 64.8233 127.533 62.5387 127.533ZM91.5737 127.533C88.8393 127.533 86.4778 126.964 84.4892 125.828C82.5124 124.68 80.9913 123.058 79.926 120.963C78.8606 118.856 78.3279 116.376 78.3279 113.523C78.3279 110.718 78.8606 108.256 79.926 106.137C81.0031 104.006 82.5065 102.349 84.4359 101.165C86.3654 99.9699 88.6322 99.3722 91.2363 99.3722C92.9172 99.3722 94.5034 99.6444 95.9949 100.189C97.4982 100.722 98.8239 101.55 99.9721 102.675C101.132 103.799 102.044 105.232 102.706 106.972C103.369 108.7 103.701 110.759 103.701 113.151V115.121H81.3464V110.789H97.5396C97.5278 109.558 97.2614 108.463 96.7406 107.504C96.2198 106.534 95.4918 105.77 94.5566 105.214C93.6333 104.657 92.5562 104.379 91.3251 104.379C90.0112 104.379 88.8571 104.699 87.8627 105.338C86.8684 105.965 86.0931 106.794 85.5368 107.824C84.9922 108.842 84.7141 109.96 84.7022 111.18V114.962C84.7022 116.548 84.9922 117.909 85.5723 119.045C86.1523 120.17 86.9631 121.034 88.0048 121.638C89.0465 122.23 90.2657 122.526 91.6625 122.526C92.5976 122.526 93.444 122.395 94.2015 122.135C94.9591 121.863 95.6161 121.466 96.1724 120.945C96.7288 120.424 97.149 119.779 97.4331 119.01L103.434 119.685C103.056 121.271 102.334 122.656 101.268 123.839C100.215 125.011 98.8654 125.923 97.22 126.574C95.5746 127.213 93.6925 127.533 91.5737 127.533ZM109.138 127V99.7273H115.566V127H109.138ZM112.37 95.8565C111.352 95.8565 110.476 95.5192 109.742 94.8445C109.008 94.1579 108.641 93.3352 108.641 92.3764C108.641 91.4058 109.008 90.5831 109.742 89.9084C110.476 89.2218 111.352 88.8786 112.37 88.8786C113.4 88.8786 114.276 89.2218 114.998 89.9084C115.732 90.5831 116.099 91.4058 116.099 92.3764C116.099 93.3352 115.732 94.1579 114.998 94.8445C114.276 95.5192 113.4 95.8565 112.37 95.8565ZM146.536 99.7273L136.824 127H129.722L120.009 99.7273H126.863L133.131 119.987H133.415L139.7 99.7273H146.536ZM162.13 127.533C159.396 127.533 157.034 126.964 155.046 125.828C153.069 124.68 151.548 123.058 150.483 120.963C149.417 118.856 148.885 116.376 148.885 113.523C148.885 110.718 149.417 108.256 150.483 106.137C151.56 104.006 153.063 102.349 154.993 101.165C156.922 99.9699 159.189 99.3722 161.793 99.3722C163.474 99.3722 165.06 99.6444 166.551 100.189C168.055 100.722 169.381 101.55 170.529 102.675C171.689 103.799 172.6 105.232 173.263 106.972C173.926 108.7 174.257 110.759 174.257 113.151V115.121H151.903V110.789H168.096C168.084 109.558 167.818 108.463 167.297 107.504C166.776 106.534 166.048 105.77 165.113 105.214C164.19 104.657 163.113 104.379 161.882 104.379C160.568 104.379 159.414 104.699 158.419 105.338C157.425 105.965 156.65 106.794 156.093 107.824C155.549 108.842 155.271 109.96 155.259 111.18V114.962C155.259 116.548 155.549 117.909 156.129 119.045C156.709 120.17 157.52 121.034 158.561 121.638C159.603 122.23 160.822 122.526 162.219 122.526C163.154 122.526 164.001 122.395 164.758 122.135C165.516 121.863 166.173 121.466 166.729 120.945C167.285 120.424 167.706 119.779 167.99 119.01L173.991 119.685C173.612 121.271 172.89 122.656 171.825 123.839C170.771 125.011 169.422 125.923 167.777 126.574C166.131 127.213 164.249 127.533 162.13 127.533ZM205.716 99.7273V104.699H190.038V99.7273H205.716ZM193.909 93.1932H200.336V118.797C200.336 119.661 200.466 120.324 200.727 120.786C200.999 121.235 201.354 121.543 201.792 121.709C202.23 121.875 202.715 121.957 203.248 121.957C203.651 121.957 204.017 121.928 204.349 121.869C204.692 121.809 204.953 121.756 205.13 121.709L206.213 126.734C205.87 126.852 205.379 126.982 204.74 127.124C204.112 127.266 203.343 127.349 202.431 127.373C200.821 127.42 199.371 127.178 198.081 126.645C196.791 126.1 195.767 125.26 195.009 124.124C194.264 122.987 193.897 121.567 193.909 119.862V93.1932ZM218.105 111.02V127H211.678V90.6364H217.963V104.362H218.283C218.922 102.823 219.91 101.609 221.248 100.722C222.597 99.822 224.314 99.3722 226.397 99.3722C228.291 99.3722 229.942 99.7687 231.351 100.562C232.759 101.355 233.848 102.515 234.618 104.042C235.399 105.569 235.79 107.433 235.79 109.635V127H229.362V110.629C229.362 108.795 228.889 107.368 227.942 106.35C227.007 105.32 225.693 104.805 224 104.805C222.864 104.805 221.846 105.054 220.946 105.551C220.058 106.036 219.36 106.741 218.851 107.664C218.354 108.587 218.105 109.706 218.105 111.02ZM254.415 127.533C251.681 127.533 249.32 126.964 247.331 125.828C245.354 124.68 243.833 123.058 242.768 120.963C241.702 118.856 241.17 116.376 241.17 113.523C241.17 110.718 241.702 108.256 242.768 106.137C243.845 104.006 245.348 102.349 247.278 101.165C249.207 99.9699 251.474 99.3722 254.078 99.3722C255.759 99.3722 257.345 99.6444 258.837 100.189C260.34 100.722 261.666 101.55 262.814 102.675C263.974 103.799 264.885 105.232 265.548 106.972C266.211 108.7 266.543 110.759 266.543 113.151V115.121H244.188V110.789H260.381C260.37 109.558 260.103 108.463 259.582 107.504C259.062 106.534 258.334 105.77 257.398 105.214C256.475 104.657 255.398 104.379 254.167 104.379C252.853 104.379 251.699 104.699 250.705 105.338C249.71 105.965 248.935 106.794 248.379 107.824C247.834 108.842 247.556 109.96 247.544 111.18V114.962C247.544 116.548 247.834 117.909 248.414 119.045C248.994 120.17 249.805 121.034 250.847 121.638C251.888 122.23 253.107 122.526 254.504 122.526C255.439 122.526 256.286 122.395 257.043 122.135C257.801 121.863 258.458 121.466 259.014 120.945C259.571 120.424 259.991 119.779 260.275 119.01L266.276 119.685C265.897 121.271 265.175 122.656 264.11 123.839C263.057 125.011 261.707 125.923 260.062 126.574C258.416 127.213 256.534 127.533 254.415 127.533ZM284.667 127V90.6364H291.094V104.237H291.361C291.692 103.574 292.16 102.87 292.763 102.124C293.367 101.367 294.184 100.722 295.214 100.189C296.243 99.6444 297.557 99.3722 299.155 99.3722C301.262 99.3722 303.162 99.9107 304.855 100.988C306.559 102.053 307.909 103.634 308.903 105.729C309.909 107.812 310.412 110.369 310.412 113.399C310.412 116.394 309.921 118.939 308.939 121.034C307.956 123.129 306.619 124.727 304.926 125.828C303.233 126.929 301.316 127.479 299.173 127.479C297.611 127.479 296.314 127.219 295.285 126.698C294.255 126.177 293.426 125.55 292.799 124.816C292.183 124.07 291.704 123.366 291.361 122.703H290.988V127H284.667ZM290.97 113.364C290.97 115.127 291.219 116.672 291.716 117.998C292.225 119.324 292.953 120.359 293.9 121.105C294.858 121.839 296.019 122.206 297.38 122.206C298.8 122.206 299.99 121.827 300.949 121.07C301.907 120.3 302.63 119.253 303.115 117.927C303.612 116.589 303.861 115.068 303.861 113.364C303.861 111.671 303.618 110.168 303.133 108.854C302.647 107.54 301.925 106.51 300.966 105.764C300.008 105.018 298.812 104.646 297.38 104.646C296.007 104.646 294.841 105.007 293.882 105.729C292.923 106.451 292.195 107.463 291.698 108.765C291.213 110.067 290.97 111.6 290.97 113.364ZM327.951 127.533C325.216 127.533 322.855 126.964 320.866 125.828C318.889 124.68 317.368 123.058 316.303 120.963C315.238 118.856 314.705 116.376 314.705 113.523C314.705 110.718 315.238 108.256 316.303 106.137C317.38 104.006 318.883 102.349 320.813 101.165C322.742 99.9699 325.009 99.3722 327.613 99.3722C329.294 99.3722 330.88 99.6444 332.372 100.189C333.875 100.722 335.201 101.55 336.349 102.675C337.509 103.799 338.421 105.232 339.083 106.972C339.746 108.7 340.078 110.759 340.078 113.151V115.121H317.723V110.789H333.917C333.905 109.558 333.638 108.463 333.118 107.504C332.597 106.534 331.869 105.77 330.934 105.214C330.01 104.657 328.933 104.379 327.702 104.379C326.388 104.379 325.234 104.699 324.24 105.338C323.245 105.965 322.47 106.794 321.914 107.824C321.369 108.842 321.091 109.96 321.079 111.18V114.962C321.079 116.548 321.369 117.909 321.949 119.045C322.529 120.17 323.34 121.034 324.382 121.638C325.423 122.23 326.643 122.526 328.039 122.526C328.975 122.526 329.821 122.395 330.578 122.135C331.336 121.863 331.993 121.466 332.549 120.945C333.106 120.424 333.526 119.779 333.81 119.01L339.811 119.685C339.433 121.271 338.711 122.656 337.645 123.839C336.592 125.011 335.242 125.923 333.597 126.574C331.952 127.213 330.069 127.533 327.951 127.533ZM367.071 106.936L361.211 107.575C361.046 106.983 360.756 106.427 360.341 105.906C359.939 105.385 359.394 104.965 358.708 104.646C358.021 104.326 357.181 104.166 356.187 104.166C354.849 104.166 353.724 104.456 352.813 105.036C351.913 105.616 351.47 106.368 351.481 107.291C351.47 108.084 351.76 108.729 352.351 109.227C352.955 109.724 353.949 110.132 355.334 110.452L359.986 111.446C362.567 112.002 364.484 112.884 365.739 114.092C367.006 115.299 367.645 116.879 367.657 118.832C367.645 120.549 367.142 122.064 366.148 123.378C365.165 124.68 363.798 125.698 362.046 126.432C360.294 127.166 358.282 127.533 356.009 127.533C352.671 127.533 349.984 126.834 347.948 125.438C345.912 124.029 344.699 122.07 344.308 119.56L350.576 118.957C350.86 120.188 351.464 121.117 352.387 121.744C353.31 122.372 354.512 122.685 355.991 122.685C357.518 122.685 358.743 122.372 359.667 121.744C360.602 121.117 361.069 120.342 361.069 119.418C361.069 118.637 360.768 117.992 360.164 117.483C359.572 116.974 358.649 116.583 357.394 116.311L352.742 115.335C350.126 114.79 348.191 113.873 346.936 112.582C345.681 111.28 345.06 109.635 345.072 107.646C345.06 105.965 345.515 104.509 346.439 103.278C347.374 102.036 348.67 101.077 350.327 100.402C351.996 99.7154 353.92 99.3722 356.098 99.3722C359.294 99.3722 361.809 100.053 363.644 101.414C365.491 102.775 366.633 104.616 367.071 106.936ZM386.575 99.7273V104.699H370.897V99.7273H386.575ZM374.768 93.1932H381.195V118.797C381.195 119.661 381.326 120.324 381.586 120.786C381.858 121.235 382.213 121.543 382.651 121.709C383.089 121.875 383.575 121.957 384.107 121.957C384.51 121.957 384.877 121.928 385.208 121.869C385.552 121.809 385.812 121.756 385.99 121.709L387.073 126.734C386.729 126.852 386.238 126.982 385.599 127.124C384.972 127.266 384.202 127.349 383.291 127.373C381.681 127.42 380.231 127.178 378.941 126.645C377.65 126.1 376.626 125.26 375.869 124.124C375.123 122.987 374.756 121.567 374.768 119.862V93.1932ZM2.30256 217V189.727H8.5348V194.273H8.81889C9.31605 192.698 10.1683 191.485 11.3757 190.633C12.5949 189.769 13.9858 189.337 15.5483 189.337C15.9034 189.337 16.3 189.354 16.7379 189.39C17.1877 189.414 17.5606 189.455 17.8565 189.514V195.427C17.5843 195.332 17.1522 195.249 16.5604 195.178C15.9804 195.095 15.4181 195.054 14.8736 195.054C13.7017 195.054 12.6482 195.308 11.7131 195.817C10.7898 196.315 10.0618 197.007 9.52912 197.895C8.99645 198.783 8.73011 199.807 8.73011 200.967V217H2.30256ZM33.0776 217.533C30.3432 217.533 27.9817 216.964 25.9931 215.828C24.0163 214.68 22.4952 213.058 21.4299 210.963C20.3645 208.856 19.8319 206.376 19.8319 203.523C19.8319 200.718 20.3645 198.256 21.4299 196.137C22.507 194.006 24.0104 192.349 25.9398 191.165C27.8693 189.97 30.1361 189.372 32.7402 189.372C34.4211 189.372 36.0073 189.644 37.4988 190.189C39.0021 190.722 40.3278 191.55 41.476 192.675C42.6361 193.799 43.5475 195.232 44.2104 196.972C44.8733 198.7 45.2047 200.759 45.2047 203.151V205.121H22.8503V200.789H39.0435C39.0317 199.558 38.7653 198.463 38.2445 197.504C37.7237 196.534 36.9957 195.77 36.0605 195.214C35.1373 194.657 34.0601 194.379 32.829 194.379C31.5151 194.379 30.361 194.699 29.3667 195.338C28.3723 195.965 27.597 196.794 27.0407 197.824C26.4962 198.842 26.218 199.96 26.2061 201.18V204.962C26.2061 206.548 26.4962 207.909 27.0762 209.045C27.6562 210.17 28.467 211.034 29.5087 211.638C30.5504 212.23 31.7696 212.526 33.1664 212.526C34.1015 212.526 34.9479 212.395 35.7054 212.135C36.463 211.863 37.12 211.466 37.6763 210.945C38.2327 210.424 38.6529 209.779 38.937 209.01L44.9384 209.685C44.5596 211.271 43.8375 212.656 42.7722 213.839C41.7187 215.011 40.3693 215.923 38.7239 216.574C37.0785 217.213 35.1964 217.533 33.0776 217.533ZM62.5387 217.533C59.8162 217.533 57.4783 216.935 55.5252 215.739C53.5839 214.544 52.0865 212.893 51.033 210.786C49.9914 208.667 49.4705 206.228 49.4705 203.47C49.4705 200.7 50.0032 198.256 51.0685 196.137C52.1339 194.006 53.6372 192.349 55.5785 191.165C57.5316 189.97 59.8398 189.372 62.5032 189.372C64.7167 189.372 66.6758 189.781 68.3803 190.597C70.0967 191.402 71.4639 192.545 72.4819 194.024C73.4999 195.492 74.0799 197.208 74.2219 199.173H68.0785C67.8299 197.859 67.238 196.764 66.3029 195.888C65.3796 195.001 64.1426 194.557 62.592 194.557C61.2781 194.557 60.1239 194.912 59.1296 195.622C58.1353 196.321 57.36 197.327 56.8036 198.641C56.2591 199.955 55.9869 201.529 55.9869 203.364C55.9869 205.222 56.2591 206.82 56.8036 208.158C57.3481 209.483 58.1116 210.507 59.0941 211.229C60.0884 211.94 61.2544 212.295 62.592 212.295C63.5389 212.295 64.3853 212.117 65.131 211.762C65.8886 211.395 66.5219 210.868 67.0309 210.182C67.5399 209.495 67.8891 208.661 68.0785 207.678H74.2219C74.0681 209.608 73.4999 211.318 72.5174 212.81C71.5349 214.289 70.1973 215.449 68.5046 216.29C66.8119 217.118 64.8233 217.533 62.5387 217.533ZM91.3961 217.533C88.7328 217.533 86.4245 216.947 84.4714 215.775C82.5183 214.603 81.0031 212.964 79.926 210.857C78.8606 208.75 78.3279 206.287 78.3279 203.47C78.3279 200.653 78.8606 198.185 79.926 196.066C81.0031 193.947 82.5183 192.302 84.4714 191.13C86.4245 189.958 88.7328 189.372 91.3961 189.372C94.0595 189.372 96.3677 189.958 98.3208 191.13C100.274 192.302 101.783 193.947 102.849 196.066C103.926 198.185 104.464 200.653 104.464 203.47C104.464 206.287 103.926 208.75 102.849 210.857C101.783 212.964 100.274 214.603 98.3208 215.775C96.3677 216.947 94.0595 217.533 91.3961 217.533ZM91.4316 212.384C92.8758 212.384 94.0832 211.987 95.0538 211.194C96.0244 210.389 96.7465 209.312 97.22 207.962C97.7053 206.613 97.948 205.11 97.948 203.452C97.948 201.783 97.7053 200.274 97.22 198.925C96.7465 197.563 96.0244 196.48 95.0538 195.675C94.0832 194.871 92.8758 194.468 91.4316 194.468C89.952 194.468 88.7209 194.871 87.7385 195.675C86.7678 196.48 86.0398 197.563 85.5545 198.925C85.081 200.274 84.8443 201.783 84.8443 203.452C84.8443 205.11 85.081 206.613 85.5545 207.962C86.0398 209.312 86.7678 210.389 87.7385 211.194C88.7209 211.987 89.952 212.384 91.4316 212.384ZM109.92 217V189.727H116.063V194.362H116.383C116.951 192.799 117.892 191.58 119.206 190.704C120.52 189.816 122.088 189.372 123.911 189.372C125.758 189.372 127.314 189.822 128.581 190.722C129.859 191.609 130.759 192.823 131.28 194.362H131.564C132.168 192.846 133.186 191.639 134.618 190.739C136.062 189.828 137.772 189.372 139.749 189.372C142.259 189.372 144.307 190.165 145.893 191.751C147.479 193.338 148.272 195.652 148.272 198.694V217H141.827V199.688C141.827 197.996 141.377 196.759 140.477 195.977C139.578 195.184 138.477 194.788 137.175 194.788C135.624 194.788 134.411 195.273 133.535 196.244C132.671 197.202 132.239 198.451 132.239 199.99V217H125.935V199.422C125.935 198.013 125.509 196.889 124.657 196.048C123.817 195.208 122.716 194.788 121.354 194.788C120.431 194.788 119.591 195.024 118.833 195.498C118.076 195.96 117.472 196.616 117.022 197.469C116.572 198.309 116.347 199.292 116.347 200.416V217H109.92ZM154.793 217V189.727H160.936V194.362H161.256C161.824 192.799 162.765 191.58 164.079 190.704C165.393 189.816 166.961 189.372 168.784 189.372C170.631 189.372 172.187 189.822 173.454 190.722C174.732 191.609 175.632 192.823 176.153 194.362H176.437C177.041 192.846 178.059 191.639 179.491 190.739C180.935 189.828 182.646 189.372 184.622 189.372C187.132 189.372 189.18 190.165 190.766 191.751C192.352 193.338 193.145 195.652 193.145 198.694V217H186.7V199.688C186.7 197.996 186.25 196.759 185.35 195.977C184.451 195.184 183.35 194.788 182.048 194.788C180.497 194.788 179.284 195.273 178.408 196.244C177.544 197.202 177.112 198.451 177.112 199.99V217H170.808V199.422C170.808 198.013 170.382 196.889 169.53 196.048C168.69 195.208 167.589 194.788 166.227 194.788C165.304 194.788 164.464 195.024 163.706 195.498C162.949 195.96 162.345 196.616 161.895 197.469C161.445 198.309 161.22 199.292 161.22 200.416V217H154.793ZM211.74 217.533C209.005 217.533 206.644 216.964 204.655 215.828C202.678 214.68 201.157 213.058 200.092 210.963C199.027 208.856 198.494 206.376 198.494 203.523C198.494 200.718 199.027 198.256 200.092 196.137C201.169 194.006 202.672 192.349 204.602 191.165C206.531 189.97 208.798 189.372 211.402 189.372C213.083 189.372 214.669 189.644 216.161 190.189C217.664 190.722 218.99 191.55 220.138 192.675C221.298 193.799 222.21 195.232 222.873 196.972C223.535 198.7 223.867 200.759 223.867 203.151V205.121H201.512V200.789H217.706C217.694 199.558 217.427 198.463 216.907 197.504C216.386 196.534 215.658 195.77 214.723 195.214C213.799 194.657 212.722 194.379 211.491 194.379C210.177 194.379 209.023 194.699 208.029 195.338C207.034 195.965 206.259 196.794 205.703 197.824C205.158 198.842 204.88 199.96 204.868 201.18V204.962C204.868 206.548 205.158 207.909 205.738 209.045C206.318 210.17 207.129 211.034 208.171 211.638C209.212 212.23 210.432 212.526 211.828 212.526C212.764 212.526 213.61 212.395 214.368 212.135C215.125 211.863 215.782 211.466 216.338 210.945C216.895 210.424 217.315 209.779 217.599 209.01L223.6 209.685C223.222 211.271 222.5 212.656 221.434 213.839C220.381 215.011 219.031 215.923 217.386 216.574C215.741 217.213 213.859 217.533 211.74 217.533ZM235.732 201.02V217H229.305V189.727H235.448V194.362H235.768C236.395 192.835 237.395 191.621 238.768 190.722C240.153 189.822 241.864 189.372 243.9 189.372C245.782 189.372 247.421 189.775 248.818 190.58C250.227 191.384 251.316 192.55 252.085 194.077C252.866 195.604 253.251 197.457 253.239 199.635V217H246.812V200.629C246.812 198.806 246.338 197.38 245.391 196.35C244.456 195.32 243.16 194.805 241.503 194.805C240.378 194.805 239.378 195.054 238.502 195.551C237.638 196.036 236.957 196.741 236.46 197.664C235.975 198.587 235.732 199.706 235.732 201.02ZM269.894 217.479C267.751 217.479 265.834 216.929 264.141 215.828C262.448 214.727 261.111 213.129 260.128 211.034C259.146 208.939 258.655 206.394 258.655 203.399C258.655 200.369 259.152 197.812 260.146 195.729C261.152 193.634 262.508 192.053 264.212 190.988C265.917 189.911 267.817 189.372 269.912 189.372C271.51 189.372 272.824 189.644 273.854 190.189C274.883 190.722 275.7 191.367 276.304 192.124C276.907 192.87 277.375 193.574 277.706 194.237H277.973V180.636H284.418V217H278.097V212.703H277.706C277.375 213.366 276.896 214.07 276.268 214.816C275.641 215.55 274.812 216.177 273.782 216.698C272.753 217.219 271.456 217.479 269.894 217.479ZM271.687 212.206C273.049 212.206 274.209 211.839 275.167 211.105C276.126 210.359 276.854 209.324 277.351 207.998C277.849 206.672 278.097 205.127 278.097 203.364C278.097 201.6 277.849 200.067 277.351 198.765C276.866 197.463 276.144 196.451 275.185 195.729C274.238 195.007 273.072 194.646 271.687 194.646C270.255 194.646 269.059 195.018 268.101 195.764C267.142 196.51 266.42 197.54 265.934 198.854C265.449 200.168 265.206 201.671 265.206 203.364C265.206 205.068 265.449 206.589 265.934 207.927C266.432 209.253 267.16 210.3 268.118 211.07C269.089 211.827 270.279 212.206 271.687 212.206ZM303.341 217.533C300.607 217.533 298.245 216.964 296.257 215.828C294.28 214.68 292.759 213.058 291.694 210.963C290.628 208.856 290.096 206.376 290.096 203.523C290.096 200.718 290.628 198.256 291.694 196.137C292.771 194.006 294.274 192.349 296.203 191.165C298.133 189.97 300.4 189.372 303.004 189.372C304.685 189.372 306.271 189.644 307.762 190.189C309.266 190.722 310.592 191.55 311.74 192.675C312.9 193.799 313.811 195.232 314.474 196.972C315.137 198.7 315.468 200.759 315.468 203.151V205.121H293.114V200.789H309.307C309.295 199.558 309.029 198.463 308.508 197.504C307.987 196.534 307.259 195.77 306.324 195.214C305.401 194.657 304.324 194.379 303.093 194.379C301.779 194.379 300.625 194.699 299.63 195.338C298.636 195.965 297.861 196.794 297.304 197.824C296.76 198.842 296.482 199.96 296.47 201.18V204.962C296.47 206.548 296.76 207.909 297.34 209.045C297.92 210.17 298.731 211.034 299.772 211.638C300.814 212.23 302.033 212.526 303.43 212.526C304.365 212.526 305.212 212.395 305.969 212.135C306.727 211.863 307.384 211.466 307.94 210.945C308.496 210.424 308.917 209.779 309.201 209.01L315.202 209.685C314.823 211.271 314.101 212.656 313.036 213.839C311.982 215.011 310.633 215.923 308.988 216.574C307.342 217.213 305.46 217.533 303.341 217.533ZM331.027 217.479C328.884 217.479 326.967 216.929 325.274 215.828C323.581 214.727 322.244 213.129 321.261 211.034C320.279 208.939 319.787 206.394 319.787 203.399C319.787 200.369 320.285 197.812 321.279 195.729C322.285 193.634 323.64 192.053 325.345 190.988C327.05 189.911 328.949 189.372 331.045 189.372C332.643 189.372 333.956 189.644 334.986 190.189C336.016 190.722 336.833 191.367 337.437 192.124C338.04 192.87 338.508 193.574 338.839 194.237H339.106V180.636H345.551V217H339.23V212.703H338.839C338.508 213.366 338.028 214.07 337.401 214.816C336.774 215.55 335.945 216.177 334.915 216.698C333.885 217.219 332.589 217.479 331.027 217.479ZM332.82 212.206C334.181 212.206 335.341 211.839 336.3 211.105C337.259 210.359 337.987 209.324 338.484 207.998C338.981 206.672 339.23 205.127 339.23 203.364C339.23 201.6 338.981 200.067 338.484 198.765C337.999 197.463 337.277 196.451 336.318 195.729C335.371 195.007 334.205 194.646 332.82 194.646C331.388 194.646 330.192 195.018 329.233 195.764C328.275 196.51 327.553 197.54 327.067 198.854C326.582 200.168 326.339 201.671 326.339 203.364C326.339 205.068 326.582 206.589 327.067 207.927C327.564 209.253 328.292 210.3 329.251 211.07C330.222 211.827 331.412 212.206 332.82 212.206ZM15.9212 279.727V284.699H0.242898V279.727H15.9212ZM4.11364 273.193H10.5412V298.797C10.5412 299.661 10.6714 300.324 10.9318 300.786C11.2041 301.235 11.5592 301.543 11.9972 301.709C12.4351 301.875 12.9205 301.957 13.4531 301.957C13.8556 301.957 14.2225 301.928 14.554 301.869C14.8973 301.809 15.1577 301.756 15.3352 301.709L16.4183 306.734C16.075 306.852 15.5838 306.982 14.9446 307.124C14.3172 307.266 13.5478 307.349 12.6364 307.373C11.0265 307.42 9.57647 307.178 8.28622 306.645C6.99598 306.1 5.97206 305.26 5.21449 304.124C4.46875 302.987 4.1018 301.567 4.11364 299.862V273.193ZM32.9 307.533C30.2367 307.533 27.9284 306.947 25.9753 305.775C24.0222 304.603 22.507 302.964 21.4299 300.857C20.3645 298.75 19.8319 296.287 19.8319 293.47C19.8319 290.653 20.3645 288.185 21.4299 286.066C22.507 283.947 24.0222 282.302 25.9753 281.13C27.9284 279.958 30.2367 279.372 32.9 279.372C35.5634 279.372 37.8716 279.958 39.8248 281.13C41.7779 282.302 43.2871 283.947 44.3525 286.066C45.4296 288.185 45.9682 290.653 45.9682 293.47C45.9682 296.287 45.4296 298.75 44.3525 300.857C43.2871 302.964 41.7779 304.603 39.8248 305.775C37.8716 306.947 35.5634 307.533 32.9 307.533ZM32.9355 302.384C34.3797 302.384 35.5871 301.987 36.5577 301.194C37.5283 300.389 38.2504 299.312 38.7239 297.962C39.2092 296.613 39.4519 295.11 39.4519 293.452C39.4519 291.783 39.2092 290.274 38.7239 288.925C38.2504 287.563 37.5283 286.48 36.5577 285.675C35.5871 284.871 34.3797 284.468 32.9355 284.468C31.4559 284.468 30.2248 284.871 29.2424 285.675C28.2717 286.48 27.5437 287.563 27.0584 288.925C26.5849 290.274 26.3482 291.783 26.3482 293.452C26.3482 295.11 26.5849 296.613 27.0584 297.962C27.5437 299.312 28.2717 300.389 29.2424 301.194C30.2248 301.987 31.4559 302.384 32.9355 302.384ZM63.826 307V279.727H70.2536V307H63.826ZM67.0575 275.857C66.0395 275.857 65.1636 275.519 64.4297 274.844C63.6958 274.158 63.3288 273.335 63.3288 272.376C63.3288 271.406 63.6958 270.583 64.4297 269.908C65.1636 269.222 66.0395 268.879 67.0575 268.879C68.0874 268.879 68.9633 269.222 69.6854 269.908C70.4193 270.583 70.7862 271.406 70.7862 272.376C70.7862 273.335 70.4193 274.158 69.6854 274.844C68.9633 275.519 68.0874 275.857 67.0575 275.857ZM76.8631 307V279.727H83.0066V284.362H83.3262C83.8944 282.799 84.8354 281.58 86.1493 280.704C87.4632 279.816 89.0317 279.372 90.8546 279.372C92.7012 279.372 94.2578 279.822 95.5243 280.722C96.8027 281.609 97.7024 282.823 98.2232 284.362H98.5073C99.111 282.846 100.129 281.639 101.561 280.739C103.005 279.828 104.716 279.372 106.693 279.372C109.202 279.372 111.25 280.165 112.836 281.751C114.422 283.338 115.215 285.652 115.215 288.694V307H108.77V289.688C108.77 287.996 108.32 286.759 107.421 285.977C106.521 285.184 105.42 284.788 104.118 284.788C102.567 284.788 101.354 285.273 100.478 286.244C99.6141 287.202 99.182 288.451 99.182 289.99V307H92.8787V289.422C92.8787 288.013 92.4526 286.889 91.6003 286.048C90.7599 285.208 89.659 284.788 88.2978 284.788C87.3745 284.788 86.534 285.024 85.7765 285.498C85.0189 285.96 84.4152 286.616 83.9654 287.469C83.5156 288.309 83.2907 289.292 83.2907 290.416V307H76.8631ZM121.736 317.227V279.727H128.057V284.237H128.43C128.761 283.574 129.229 282.87 129.833 282.124C130.436 281.367 131.253 280.722 132.283 280.189C133.313 279.644 134.627 279.372 136.225 279.372C138.332 279.372 140.232 279.911 141.924 280.988C143.629 282.053 144.978 283.634 145.973 285.729C146.979 287.812 147.482 290.369 147.482 293.399C147.482 296.394 146.991 298.939 146.008 301.034C145.026 303.129 143.688 304.727 141.995 305.828C140.303 306.929 138.385 307.479 136.243 307.479C134.68 307.479 133.384 307.219 132.354 306.698C131.324 306.177 130.496 305.55 129.868 304.816C129.253 304.07 128.773 303.366 128.43 302.703H128.164V317.227H121.736ZM128.039 293.364C128.039 295.127 128.288 296.672 128.785 297.998C129.294 299.324 130.022 300.359 130.969 301.105C131.928 301.839 133.088 302.206 134.449 302.206C135.87 302.206 137.059 301.827 138.018 301.07C138.977 300.3 139.699 299.253 140.184 297.927C140.681 296.589 140.93 295.068 140.93 293.364C140.93 291.671 140.687 290.168 140.202 288.854C139.717 287.54 138.995 286.51 138.036 285.764C137.077 285.018 135.882 284.646 134.449 284.646C133.076 284.646 131.91 285.007 130.951 285.729C129.993 286.451 129.265 287.463 128.767 288.765C128.282 290.067 128.039 291.6 128.039 293.364ZM152.986 307V279.727H159.218V284.273H159.502C160 282.698 160.852 281.485 162.059 280.633C163.279 279.769 164.669 279.337 166.232 279.337C166.587 279.337 166.984 279.354 167.422 279.39C167.871 279.414 168.244 279.455 168.54 279.514V285.427C168.268 285.332 167.836 285.249 167.244 285.178C166.664 285.095 166.102 285.054 165.557 285.054C164.385 285.054 163.332 285.308 162.397 285.817C161.473 286.315 160.745 287.007 160.213 287.895C159.68 288.783 159.414 289.807 159.414 290.967V307H152.986ZM183.584 307.533C180.92 307.533 178.612 306.947 176.659 305.775C174.706 304.603 173.191 302.964 172.113 300.857C171.048 298.75 170.515 296.287 170.515 293.47C170.515 290.653 171.048 288.185 172.113 286.066C173.191 283.947 174.706 282.302 176.659 281.13C178.612 279.958 180.92 279.372 183.584 279.372C186.247 279.372 188.555 279.958 190.508 281.13C192.461 282.302 193.971 283.947 195.036 286.066C196.113 288.185 196.652 290.653 196.652 293.47C196.652 296.287 196.113 298.75 195.036 300.857C193.971 302.964 192.461 304.603 190.508 305.775C188.555 306.947 186.247 307.533 183.584 307.533ZM183.619 302.384C185.063 302.384 186.271 301.987 187.241 301.194C188.212 300.389 188.934 299.312 189.407 297.962C189.893 296.613 190.135 295.11 190.135 293.452C190.135 291.783 189.893 290.274 189.407 288.925C188.934 287.563 188.212 286.48 187.241 285.675C186.271 284.871 185.063 284.468 183.619 284.468C182.14 284.468 180.908 284.871 179.926 285.675C178.955 286.48 178.227 287.563 177.742 288.925C177.269 290.274 177.032 291.783 177.032 293.452C177.032 295.11 177.269 296.613 177.742 297.962C178.227 299.312 178.955 300.389 179.926 301.194C180.908 301.987 182.14 302.384 183.619 302.384ZM225.54 279.727L215.828 307H208.726L199.013 279.727H205.867L212.135 299.987H212.419L218.704 279.727H225.54ZM241.134 307.533C238.4 307.533 236.038 306.964 234.05 305.828C232.073 304.68 230.552 303.058 229.487 300.963C228.421 298.856 227.888 296.376 227.888 293.523C227.888 290.718 228.421 288.256 229.487 286.137C230.564 284.006 232.067 282.349 233.996 281.165C235.926 279.97 238.193 279.372 240.797 279.372C242.478 279.372 244.064 279.644 245.555 280.189C247.059 280.722 248.384 281.55 249.533 282.675C250.693 283.799 251.604 285.232 252.267 286.972C252.93 288.7 253.261 290.759 253.261 293.151V295.121H230.907V290.789H247.1C247.088 289.558 246.822 288.463 246.301 287.504C245.78 286.534 245.052 285.77 244.117 285.214C243.194 284.657 242.117 284.379 240.886 284.379C239.572 284.379 238.418 284.699 237.423 285.338C236.429 285.965 235.654 286.794 235.097 287.824C234.553 288.842 234.275 289.96 234.263 291.18V294.962C234.263 296.548 234.553 297.909 235.133 299.045C235.713 300.17 236.524 301.034 237.565 301.638C238.607 302.23 239.826 302.526 241.223 302.526C242.158 302.526 243.004 302.395 243.762 302.135C244.52 301.863 245.177 301.466 245.733 300.945C246.289 300.424 246.71 299.779 246.994 299.01L252.995 299.685C252.616 301.271 251.894 302.656 250.829 303.839C249.775 305.011 248.426 305.923 246.781 306.574C245.135 307.213 243.253 307.533 241.134 307.533ZM289.301 317.227V302.703H289.035C288.703 303.366 288.224 304.07 287.596 304.816C286.969 305.55 286.14 306.177 285.111 306.698C284.081 307.219 282.785 307.479 281.222 307.479C279.08 307.479 277.162 306.929 275.469 305.828C273.777 304.727 272.439 303.129 271.456 301.034C270.474 298.939 269.983 296.394 269.983 293.399C269.983 290.369 270.48 287.812 271.474 285.729C272.48 283.634 273.836 282.053 275.54 280.988C277.245 279.911 279.145 279.372 281.24 279.372C282.838 279.372 284.152 279.644 285.182 280.189C286.211 280.722 287.028 281.367 287.632 282.124C288.236 282.87 288.703 283.574 289.035 284.237H289.425V279.727H295.746V317.227H289.301ZM283.015 302.206C284.377 302.206 285.537 301.839 286.496 301.105C287.454 300.359 288.182 299.324 288.68 297.998C289.177 296.672 289.425 295.127 289.425 293.364C289.425 291.6 289.177 290.067 288.68 288.765C288.194 287.463 287.472 286.451 286.513 285.729C285.566 285.007 284.4 284.646 283.015 284.646C281.583 284.646 280.388 285.018 279.429 285.764C278.47 286.51 277.748 287.54 277.263 288.854C276.777 290.168 276.535 291.671 276.535 293.364C276.535 295.068 276.777 296.589 277.263 297.927C277.76 299.253 278.488 300.3 279.447 301.07C280.417 301.827 281.607 302.206 283.015 302.206ZM319.734 295.53V279.727H326.162V307H319.93V302.153H319.645C319.03 303.68 318.018 304.929 316.609 305.899C315.212 306.87 313.49 307.355 311.442 307.355C309.655 307.355 308.075 306.959 306.702 306.165C305.34 305.361 304.275 304.195 303.506 302.668C302.736 301.129 302.351 299.27 302.351 297.092V279.727H308.779V296.098C308.779 297.826 309.252 299.199 310.199 300.217C311.146 301.235 312.389 301.744 313.928 301.744C314.875 301.744 315.792 301.513 316.68 301.052C317.568 300.59 318.296 299.904 318.864 298.992C319.444 298.069 319.734 296.915 319.734 295.53ZM332.771 307V279.727H339.199V307H332.771ZM336.003 275.857C334.985 275.857 334.109 275.519 333.375 274.844C332.641 274.158 332.274 273.335 332.274 272.376C332.274 271.406 332.641 270.583 333.375 269.908C334.109 269.222 334.985 268.879 336.003 268.879C337.033 268.879 337.909 269.222 338.631 269.908C339.365 270.583 339.732 271.406 339.732 272.376C339.732 273.335 339.365 274.158 338.631 274.844C337.909 275.519 337.033 275.857 336.003 275.857ZM357.705 307.533C354.982 307.533 352.644 306.935 350.691 305.739C348.75 304.544 347.253 302.893 346.199 300.786C345.157 298.667 344.637 296.228 344.637 293.47C344.637 290.7 345.169 288.256 346.235 286.137C347.3 284.006 348.803 282.349 350.744 281.165C352.698 279.97 355.006 279.372 357.669 279.372C359.883 279.372 361.842 279.781 363.546 280.597C365.263 281.402 366.63 282.545 367.648 284.024C368.666 285.492 369.246 287.208 369.388 289.173H363.244C362.996 287.859 362.404 286.764 361.469 285.888C360.546 285.001 359.309 284.557 357.758 284.557C356.444 284.557 355.29 284.912 354.296 285.622C353.301 286.321 352.526 287.327 351.97 288.641C351.425 289.955 351.153 291.529 351.153 293.364C351.153 295.222 351.425 296.82 351.97 298.158C352.514 299.483 353.278 300.507 354.26 301.229C355.254 301.94 356.42 302.295 357.758 302.295C358.705 302.295 359.551 302.117 360.297 301.762C361.055 301.395 361.688 300.868 362.197 300.182C362.706 299.495 363.055 298.661 363.244 297.678H369.388C369.234 299.608 368.666 301.318 367.683 302.81C366.701 304.289 365.363 305.449 363.671 306.29C361.978 307.118 359.989 307.533 357.705 307.533ZM380.525 298.442L380.507 290.683H381.537L391.338 279.727H398.849L386.793 293.151H385.461L380.525 298.442ZM374.666 307V270.636H381.093V307H374.666ZM391.782 307L382.904 294.589L387.237 290.061L399.471 307H391.782ZM409.56 270.636V307H403.133V270.636H409.56ZM420.165 317.227C419.289 317.227 418.478 317.156 417.732 317.014C416.998 316.884 416.412 316.73 415.974 316.553L417.466 311.545C418.401 311.818 419.236 311.948 419.969 311.936C420.703 311.924 421.348 311.693 421.905 311.244C422.473 310.806 422.952 310.072 423.343 309.042L423.893 307.568L414.004 279.727H420.822L427.107 300.324H427.391L433.695 279.727H440.531L429.611 310.303C429.102 311.747 428.427 312.984 427.587 314.013C426.746 315.055 425.716 315.848 424.497 316.393C423.29 316.949 421.846 317.227 420.165 317.227Z" fill="black"/>
<path d="M271.199 47.2273V9.72727H277.52V14.2372H277.893C278.224 13.5743 278.692 12.87 279.296 12.1243C279.899 11.3667 280.716 10.7216 281.746 10.1889C282.776 9.64441 284.09 9.37216 285.688 9.37216C287.795 9.37216 289.695 9.91075 291.387 10.9879C293.092 12.0533 294.441 13.6335 295.436 15.7287C296.442 17.812 296.945 20.3688 296.945 23.3991C296.945 26.3939 296.454 28.9389 295.471 31.0341C294.489 33.1293 293.151 34.7273 291.458 35.8281C289.766 36.929 287.848 37.4794 285.705 37.4794C284.143 37.4794 282.847 37.219 281.817 36.6982C280.787 36.1773 279.959 35.55 279.331 34.8161C278.716 34.0703 278.236 33.366 277.893 32.7031H277.627V47.2273H271.199ZM277.502 23.3636C277.502 25.1274 277.751 26.6721 278.248 27.9979C278.757 29.3236 279.485 30.3594 280.432 31.1051C281.391 31.839 282.551 32.206 283.912 32.206C285.333 32.206 286.522 31.8272 287.481 31.0696C288.44 30.3002 289.162 29.2526 289.647 27.9268C290.144 26.5893 290.393 25.0682 290.393 23.3636C290.393 21.6709 290.15 20.1676 289.665 18.8537C289.18 17.5398 288.458 16.5099 287.499 15.7642C286.54 15.0185 285.344 14.6456 283.912 14.6456C282.539 14.6456 281.373 15.0066 280.414 15.7287C279.455 16.4508 278.727 17.4628 278.23 18.7649C277.745 20.067 277.502 21.5999 277.502 23.3636ZM302.449 37V9.72727H308.681V14.2727H308.965C309.463 12.6984 310.315 11.4851 311.522 10.6328C312.741 9.7687 314.132 9.33665 315.695 9.33665C316.05 9.33665 316.446 9.3544 316.884 9.38991C317.334 9.41359 317.707 9.45502 318.003 9.5142V15.4268C317.731 15.3321 317.299 15.2493 316.707 15.1783C316.127 15.0954 315.565 15.054 315.02 15.054C313.848 15.054 312.795 15.3085 311.86 15.8175C310.936 16.3146 310.208 17.0071 309.676 17.8949C309.143 18.7827 308.877 19.8066 308.877 20.9666V37H302.449ZM333.047 37.5327C330.383 37.5327 328.075 36.9467 326.122 35.7749C324.169 34.603 322.654 32.9635 321.576 30.8565C320.511 28.7495 319.978 26.2874 319.978 23.4702C319.978 20.6529 320.511 18.1849 321.576 16.0661C322.654 13.9472 324.169 12.3018 326.122 11.13C328.075 9.9581 330.383 9.37216 333.047 9.37216C335.71 9.37216 338.018 9.9581 339.971 11.13C341.924 12.3018 343.434 13.9472 344.499 16.0661C345.576 18.1849 346.115 20.6529 346.115 23.4702C346.115 26.2874 345.576 28.7495 344.499 30.8565C343.434 32.9635 341.924 34.603 339.971 35.7749C338.018 36.9467 335.71 37.5327 333.047 37.5327ZM333.082 32.3835C334.526 32.3835 335.734 31.987 336.704 31.1939C337.675 30.389 338.397 29.3118 338.87 27.9624C339.356 26.6129 339.598 25.1096 339.598 23.4524C339.598 21.7834 339.356 20.2741 338.87 18.9247C338.397 17.5634 337.675 16.4804 336.704 15.6754C335.734 14.8705 334.526 14.468 333.082 14.468C331.602 14.468 330.371 14.8705 329.389 15.6754C328.418 16.4804 327.69 17.5634 327.205 18.9247C326.731 20.2741 326.495 21.7834 326.495 23.4524C326.495 25.1096 326.731 26.6129 327.205 27.9624C327.69 29.3118 328.418 30.389 329.389 31.1939C330.371 31.987 331.602 32.3835 333.082 32.3835Z" fill="url(#paint0_linear_2_301)"/>
<path d="M271.199 47.2273V9.72727H277.52V14.2372H277.893C278.224 13.5743 278.692 12.87 279.296 12.1243C279.899 11.3667 280.716 10.7216 281.746 10.1889C282.776 9.64441 284.09 9.37216 285.688 9.37216C287.795 9.37216 289.695 9.91075 291.387 10.9879C293.092 12.0533 294.441 13.6335 295.436 15.7287C296.442 17.812 296.945 20.3688 296.945 23.3991C296.945 26.3939 296.454 28.9389 295.471 31.0341C294.489 33.1293 293.151 34.7273 291.458 35.8281C289.766 36.929 287.848 37.4794 285.705 37.4794C284.143 37.4794 282.847 37.219 281.817 36.6982C280.787 36.1773 279.959 35.55 279.331 34.8161C278.716 34.0703 278.236 33.366 277.893 32.7031H277.627V47.2273H271.199ZM277.502 23.3636C277.502 25.1274 277.751 26.6721 278.248 27.9979C278.757 29.3236 279.485 30.3594 280.432 31.1051C281.391 31.839 282.551 32.206 283.912 32.206C285.333 32.206 286.522 31.8272 287.481 31.0696C288.44 30.3002 289.162 29.2526 289.647 27.9268C290.144 26.5893 290.393 25.0682 290.393 23.3636C290.393 21.6709 290.15 20.1676 289.665 18.8537C289.18 17.5398 288.458 16.5099 287.499 15.7642C286.54 15.0185 285.344 14.6456 283.912 14.6456C282.539 14.6456 281.373 15.0066 280.414 15.7287C279.455 16.4508 278.727 17.4628 278.23 18.7649C277.745 20.067 277.502 21.5999 277.502 23.3636ZM302.449 37V9.72727H308.681V14.2727H308.965C309.463 12.6984 310.315 11.4851 311.522 10.6328C312.741 9.7687 314.132 9.33665 315.695 9.33665C316.05 9.33665 316.446 9.3544 316.884 9.38991C317.334 9.41359 317.707 9.45502 318.003 9.5142V15.4268C317.731 15.3321 317.299 15.2493 316.707 15.1783C316.127 15.0954 315.565 15.054 315.02 15.054C313.848 15.054 312.795 15.3085 311.86 15.8175C310.936 16.3146 310.208 17.0071 309.676 17.8949C309.143 18.7827 308.877 19.8066 308.877 20.9666V37H302.449ZM333.047 37.5327C330.383 37.5327 328.075 36.9467 326.122 35.7749C324.169 34.603 322.654 32.9635 321.576 30.8565C320.511 28.7495 319.978 26.2874 319.978 23.4702C319.978 20.6529 320.511 18.1849 321.576 16.0661C322.654 13.9472 324.169 12.3018 326.122 11.13C328.075 9.9581 330.383 9.37216 333.047 9.37216C335.71 9.37216 338.018 9.9581 339.971 11.13C341.924 12.3018 343.434 13.9472 344.499 16.0661C345.576 18.1849 346.115 20.6529 346.115 23.4702C346.115 26.2874 345.576 28.7495 344.499 30.8565C343.434 32.9635 341.924 34.603 339.971 35.7749C338.018 36.9467 335.71 37.5327 333.047 37.5327ZM333.082 32.3835C334.526 32.3835 335.734 31.987 336.704 31.1939C337.675 30.389 338.397 29.3118 338.87 27.9624C339.356 26.6129 339.598 25.1096 339.598 23.4524C339.598 21.7834 339.356 20.2741 338.87 18.9247C338.397 17.5634 337.675 16.4804 336.704 15.6754C335.734 14.8705 334.526 14.468 333.082 14.468C331.602 14.468 330.371 14.8705 329.389 15.6754C328.418 16.4804 327.69 17.5634 327.205 18.9247C326.731 20.2741 326.495 21.7834 326.495 23.4524C326.495 25.1096 326.731 26.6129 327.205 27.9624C327.69 29.3118 328.418 30.389 329.389 31.1939C330.371 31.987 331.602 32.3835 333.082 32.3835Z" fill="url(#paint1_linear_2_301)"/>
<path d="M363.431 47.7955C361.123 47.7955 359.14 47.4818 357.483 46.8544C355.826 46.2389 354.494 45.4103 353.488 44.3686C352.482 43.3269 351.783 42.1728 351.393 40.9062L357.181 39.5036C357.441 40.0362 357.82 40.563 358.317 41.0838C358.814 41.6165 359.483 42.0545 360.324 42.3977C361.176 42.7528 362.247 42.9304 363.537 42.9304C365.36 42.9304 366.87 42.4865 368.065 41.5987C369.261 40.7228 369.858 39.2786 369.858 37.2663V32.0994H369.539C369.207 32.7623 368.722 33.4429 368.083 34.1413C367.456 34.8397 366.621 35.4257 365.579 35.8991C364.55 36.3726 363.253 36.6094 361.691 36.6094C359.596 36.6094 357.696 36.1181 355.991 35.1357C354.299 34.1413 352.949 32.6617 351.943 30.6967C350.949 28.7199 350.452 26.246 350.452 23.2749C350.452 20.2801 350.949 17.7528 351.943 15.6932C352.949 13.6217 354.305 12.0533 356.009 10.9879C357.714 9.91075 359.613 9.37216 361.709 9.37216C363.307 9.37216 364.621 9.64441 365.65 10.1889C366.692 10.7216 367.521 11.3667 368.136 12.1243C368.752 12.87 369.219 13.5743 369.539 14.2372H369.894V9.72727H376.233V37.4439C376.233 39.7758 375.676 41.7053 374.564 43.2322C373.451 44.7592 371.93 45.9015 370.001 46.6591C368.071 47.4167 365.881 47.7955 363.431 47.7955ZM363.484 31.5668C364.845 31.5668 366.006 31.2353 366.964 30.5724C367.923 29.9096 368.651 28.9567 369.148 27.7138C369.645 26.4709 369.894 24.9794 369.894 23.2393C369.894 21.523 369.645 20.0196 369.148 18.7294C368.663 17.4392 367.941 16.4389 366.982 15.7287C366.035 15.0066 364.869 14.6456 363.484 14.6456C362.052 14.6456 360.856 15.0185 359.898 15.7642C358.939 16.5099 358.217 17.5339 357.731 18.8359C357.246 20.1262 357.003 21.594 357.003 23.2393C357.003 24.9084 357.246 26.3703 357.731 27.625C358.229 28.8679 358.956 29.8385 359.915 30.5369C360.886 31.2235 362.076 31.5668 363.484 31.5668ZM382.82 37V9.72727H389.052V14.2727H389.336C389.834 12.6984 390.686 11.4851 391.893 10.6328C393.113 9.7687 394.503 9.33665 396.066 9.33665C396.421 9.33665 396.818 9.3544 397.256 9.38991C397.705 9.41359 398.078 9.45502 398.374 9.5142V15.4268C398.102 15.3321 397.67 15.2493 397.078 15.1783C396.498 15.0954 395.936 15.054 395.391 15.054C394.219 15.054 393.166 15.3085 392.231 15.8175C391.307 16.3146 390.579 17.0071 390.047 17.8949C389.514 18.7827 389.248 19.8066 389.248 20.9666V37H382.82ZM413.595 37.5327C410.861 37.5327 408.499 36.9645 406.511 35.8281C404.534 34.6799 403.013 33.0582 401.947 30.9631C400.882 28.8561 400.349 26.3762 400.349 23.5234C400.349 20.718 400.882 18.2559 401.947 16.1371C403.025 14.0064 404.528 12.3492 406.457 11.1655C408.387 9.96993 410.654 9.37216 413.258 9.37216C414.939 9.37216 416.525 9.64441 418.016 10.1889C419.52 10.7216 420.845 11.5502 421.994 12.6747C423.154 13.7992 424.065 15.2315 424.728 16.9716C425.391 18.6998 425.722 20.7595 425.722 23.1506V25.1214H403.368V20.7891H419.561C419.549 19.558 419.283 18.4631 418.762 17.5043C418.241 16.5336 417.513 15.7701 416.578 15.2138C415.655 14.6574 414.578 14.3793 413.347 14.3793C412.033 14.3793 410.879 14.6989 409.884 15.3381C408.89 15.9654 408.115 16.794 407.558 17.8239C407.014 18.8419 406.736 19.9605 406.724 21.1797V24.9616C406.724 26.5478 407.014 27.9091 407.594 29.0455C408.174 30.17 408.985 31.0341 410.026 31.6378C411.068 32.2296 412.287 32.5256 413.684 32.5256C414.619 32.5256 415.465 32.3954 416.223 32.1349C416.981 31.8627 417.638 31.4661 418.194 30.9453C418.75 30.4245 419.17 29.7794 419.455 29.0099L425.456 29.6847C425.077 31.2708 424.355 32.6558 423.29 33.8395C422.236 35.0114 420.887 35.9228 419.241 36.5739C417.596 37.2131 415.714 37.5327 413.595 37.5327ZM452.715 16.9361L446.856 17.5753C446.69 16.9834 446.4 16.4271 445.986 15.9062C445.584 15.3854 445.039 14.9652 444.352 14.6456C443.666 14.326 442.825 14.1662 441.831 14.1662C440.494 14.1662 439.369 14.4562 438.458 15.0362C437.558 15.6162 437.114 16.3679 437.126 17.2912C437.114 18.0843 437.404 18.7294 437.996 19.2266C438.6 19.7237 439.594 20.1321 440.979 20.4517L445.631 21.446C448.211 22.0024 450.129 22.8842 451.384 24.0916C452.65 25.299 453.289 26.8793 453.301 28.8324C453.289 30.5488 452.786 32.0639 451.792 33.3778C450.81 34.6799 449.442 35.6979 447.691 36.4318C445.939 37.1657 443.926 37.5327 441.654 37.5327C438.316 37.5327 435.628 36.8343 433.593 35.4375C431.557 34.0289 430.343 32.0698 429.953 29.5604L436.22 28.9567C436.504 30.1877 437.108 31.117 438.031 31.7443C438.955 32.3717 440.156 32.6854 441.636 32.6854C443.163 32.6854 444.388 32.3717 445.311 31.7443C446.246 31.117 446.714 30.3416 446.714 29.4183C446.714 28.6371 446.412 27.992 445.808 27.483C445.217 26.974 444.293 26.5833 443.039 26.3111L438.387 25.3345C435.771 24.79 433.835 23.8726 432.58 22.5824C431.326 21.2803 430.704 19.6349 430.716 17.6463C430.704 15.9654 431.16 14.5095 432.083 13.2784C433.018 12.0355 434.315 11.0767 435.972 10.402C437.641 9.71544 439.564 9.37216 441.742 9.37216C444.938 9.37216 447.454 10.0528 449.289 11.4141C451.135 12.7753 452.277 14.616 452.715 16.9361ZM480.157 16.9361L474.297 17.5753C474.132 16.9834 473.842 16.4271 473.427 15.9062C473.025 15.3854 472.48 14.9652 471.794 14.6456C471.107 14.326 470.267 14.1662 469.273 14.1662C467.935 14.1662 466.81 14.4562 465.899 15.0362C464.999 15.6162 464.555 16.3679 464.567 17.2912C464.555 18.0843 464.845 18.7294 465.437 19.2266C466.041 19.7237 467.035 20.1321 468.42 20.4517L473.072 21.446C475.653 22.0024 477.57 22.8842 478.825 24.0916C480.092 25.299 480.731 26.8793 480.743 28.8324C480.731 30.5488 480.228 32.0639 479.233 33.3778C478.251 34.6799 476.884 35.6979 475.132 36.4318C473.38 37.1657 471.368 37.5327 469.095 37.5327C465.757 37.5327 463.07 36.8343 461.034 35.4375C458.998 34.0289 457.785 32.0698 457.394 29.5604L463.662 28.9567C463.946 30.1877 464.55 31.117 465.473 31.7443C466.396 32.3717 467.598 32.6854 469.077 32.6854C470.604 32.6854 471.829 32.3717 472.753 31.7443C473.688 31.117 474.155 30.3416 474.155 29.4183C474.155 28.6371 473.854 27.992 473.25 27.483C472.658 26.974 471.735 26.5833 470.48 26.3111L465.828 25.3345C463.212 24.79 461.277 23.8726 460.022 22.5824C458.767 21.2803 458.146 19.6349 458.157 17.6463C458.146 15.9654 458.601 14.5095 459.525 13.2784C460.46 12.0355 461.756 11.0767 463.413 10.402C465.082 9.71544 467.006 9.37216 469.184 9.37216C472.38 9.37216 474.895 10.0528 476.73 11.4141C478.577 12.7753 479.719 14.616 480.157 16.9361Z" fill="url(#paint2_linear_2_301)"/>
<path d="M364.803 217V189.727H371.035V194.273H371.319C371.816 192.698 372.668 191.485 373.876 190.633C375.095 189.769 376.486 189.337 378.048 189.337C378.403 189.337 378.8 189.354 379.238 189.39C379.688 189.414 380.061 189.455 380.357 189.514V195.427C380.084 195.332 379.652 195.249 379.06 195.178C378.48 195.095 377.918 195.054 377.374 195.054C376.202 195.054 375.148 195.308 374.213 195.817C373.29 196.315 372.562 197.007 372.029 197.895C371.496 198.783 371.23 199.807 371.23 200.967V217H364.803ZM395.578 217.533C392.843 217.533 390.482 216.964 388.493 215.828C386.516 214.68 384.995 213.058 383.93 210.963C382.865 208.856 382.332 206.376 382.332 203.523C382.332 200.718 382.865 198.256 383.93 196.137C385.007 194.006 386.51 192.349 388.44 191.165C390.369 189.97 392.636 189.372 395.24 189.372C396.921 189.372 398.507 189.644 399.999 190.189C401.502 190.722 402.828 191.55 403.976 192.675C405.136 193.799 406.048 195.232 406.71 196.972C407.373 198.7 407.705 200.759 407.705 203.151V205.121H385.35V200.789H401.544C401.532 199.558 401.265 198.463 400.744 197.504C400.224 196.534 399.496 195.77 398.561 195.214C397.637 194.657 396.56 194.379 395.329 194.379C394.015 194.379 392.861 194.699 391.867 195.338C390.872 195.965 390.097 196.794 389.541 197.824C388.996 198.842 388.718 199.96 388.706 201.18V204.962C388.706 206.548 388.996 207.909 389.576 209.045C390.156 210.17 390.967 211.034 392.009 211.638C393.05 212.23 394.27 212.526 395.666 212.526C396.602 212.526 397.448 212.395 398.205 212.135C398.963 211.863 399.62 211.466 400.176 210.945C400.733 210.424 401.153 209.779 401.437 209.01L407.438 209.685C407.06 211.271 406.338 212.656 405.272 213.839C404.219 215.011 402.869 215.923 401.224 216.574C399.579 217.213 397.696 217.533 395.578 217.533ZM434.698 196.936L428.838 197.575C428.673 196.983 428.383 196.427 427.968 195.906C427.566 195.385 427.021 194.965 426.335 194.646C425.648 194.326 424.808 194.166 423.814 194.166C422.476 194.166 421.351 194.456 420.44 195.036C419.54 195.616 419.096 196.368 419.108 197.291C419.096 198.084 419.386 198.729 419.978 199.227C420.582 199.724 421.576 200.132 422.961 200.452L427.613 201.446C430.194 202.002 432.111 202.884 433.366 204.092C434.633 205.299 435.272 206.879 435.284 208.832C435.272 210.549 434.769 212.064 433.775 213.378C432.792 214.68 431.425 215.698 429.673 216.432C427.921 217.166 425.909 217.533 423.636 217.533C420.298 217.533 417.611 216.834 415.575 215.438C413.539 214.029 412.326 212.07 411.935 209.56L418.203 208.957C418.487 210.188 419.091 211.117 420.014 211.744C420.937 212.372 422.139 212.685 423.618 212.685C425.145 212.685 426.37 212.372 427.294 211.744C428.229 211.117 428.696 210.342 428.696 209.418C428.696 208.637 428.395 207.992 427.791 207.483C427.199 206.974 426.276 206.583 425.021 206.311L420.369 205.335C417.753 204.79 415.818 203.873 414.563 202.582C413.308 201.28 412.687 199.635 412.699 197.646C412.687 195.965 413.142 194.509 414.066 193.278C415.001 192.036 416.297 191.077 417.954 190.402C419.623 189.715 421.547 189.372 423.725 189.372C426.921 189.372 429.436 190.053 431.271 191.414C433.118 192.775 434.26 194.616 434.698 196.936ZM452.48 217.533C449.817 217.533 447.509 216.947 445.555 215.775C443.602 214.603 442.087 212.964 441.01 210.857C439.945 208.75 439.412 206.287 439.412 203.47C439.412 200.653 439.945 198.185 441.01 196.066C442.087 193.947 443.602 192.302 445.555 191.13C447.509 189.958 449.817 189.372 452.48 189.372C455.143 189.372 457.452 189.958 459.405 191.13C461.358 192.302 462.867 193.947 463.933 196.066C465.01 198.185 465.548 200.653 465.548 203.47C465.548 206.287 465.01 208.75 463.933 210.857C462.867 212.964 461.358 214.603 459.405 215.775C457.452 216.947 455.143 217.533 452.48 217.533ZM452.516 212.384C453.96 212.384 455.167 211.987 456.138 211.194C457.108 210.389 457.83 209.312 458.304 207.962C458.789 206.613 459.032 205.11 459.032 203.452C459.032 201.783 458.789 200.274 458.304 198.925C457.83 197.563 457.108 196.48 456.138 195.675C455.167 194.871 453.96 194.468 452.516 194.468C451.036 194.468 449.805 194.871 448.822 195.675C447.852 196.48 447.124 197.563 446.638 198.925C446.165 200.274 445.928 201.783 445.928 203.452C445.928 205.11 446.165 206.613 446.638 207.962C447.124 209.312 447.852 210.389 448.822 211.194C449.805 211.987 451.036 212.384 452.516 212.384ZM488.387 205.53V189.727H494.814V217H488.582V212.153H488.298C487.682 213.68 486.67 214.929 485.262 215.899C483.865 216.87 482.142 217.355 480.095 217.355C478.307 217.355 476.727 216.959 475.354 216.165C473.993 215.361 472.927 214.195 472.158 212.668C471.388 211.129 471.004 209.27 471.004 207.092V189.727H477.431V206.098C477.431 207.826 477.905 209.199 478.852 210.217C479.799 211.235 481.042 211.744 482.58 211.744C483.527 211.744 484.445 211.513 485.333 211.052C486.22 210.59 486.948 209.904 487.517 208.992C488.097 208.069 488.387 206.915 488.387 205.53ZM501.424 217V189.727H507.656V194.273H507.94C508.437 192.698 509.289 191.485 510.497 190.633C511.716 189.769 513.107 189.337 514.669 189.337C515.025 189.337 515.421 189.354 515.859 189.39C516.309 189.414 516.682 189.455 516.978 189.514V195.427C516.705 195.332 516.273 195.249 515.681 195.178C515.101 195.095 514.539 195.054 513.995 195.054C512.823 195.054 511.769 195.308 510.834 195.817C509.911 196.315 509.183 197.007 508.65 197.895C508.118 198.783 507.851 199.807 507.851 200.967V217H501.424ZM532.021 217.533C529.299 217.533 526.961 216.935 525.008 215.739C523.066 214.544 521.569 212.893 520.515 210.786C519.474 208.667 518.953 206.228 518.953 203.47C518.953 200.7 519.486 198.256 520.551 196.137C521.616 194.006 523.12 192.349 525.061 191.165C527.014 189.97 529.322 189.372 531.986 189.372C534.199 189.372 536.158 189.781 537.863 190.597C539.579 191.402 540.946 192.545 541.964 194.024C542.982 195.492 543.562 197.208 543.704 199.173H537.561C537.312 197.859 536.72 196.764 535.785 195.888C534.862 195.001 533.625 194.557 532.074 194.557C530.76 194.557 529.606 194.912 528.612 195.622C527.618 196.321 526.842 197.327 526.286 198.641C525.742 199.955 525.469 201.529 525.469 203.364C525.469 205.222 525.742 206.82 526.286 208.158C526.831 209.483 527.594 210.507 528.577 211.229C529.571 211.94 530.737 212.295 532.074 212.295C533.021 212.295 533.868 212.117 534.613 211.762C535.371 211.395 536.004 210.868 536.513 210.182C537.022 209.495 537.372 208.661 537.561 207.678H543.704C543.55 209.608 542.982 211.318 542 212.81C541.017 214.289 539.68 215.449 537.987 216.29C536.294 217.118 534.306 217.533 532.021 217.533ZM561.056 217.533C558.322 217.533 555.96 216.964 553.972 215.828C551.995 214.68 550.474 213.058 549.408 210.963C548.343 208.856 547.81 206.376 547.81 203.523C547.81 200.718 548.343 198.256 549.408 196.137C550.486 194.006 551.989 192.349 553.918 191.165C555.848 189.97 558.115 189.372 560.719 189.372C562.4 189.372 563.986 189.644 565.477 190.189C566.981 190.722 568.306 191.55 569.455 192.675C570.615 193.799 571.526 195.232 572.189 196.972C572.852 198.7 573.183 200.759 573.183 203.151V205.121H550.829V200.789H567.022C567.01 199.558 566.744 198.463 566.223 197.504C565.702 196.534 564.974 195.77 564.039 195.214C563.116 194.657 562.039 194.379 560.808 194.379C559.494 194.379 558.339 194.699 557.345 195.338C556.351 195.965 555.576 196.794 555.019 197.824C554.475 198.842 554.196 199.96 554.185 201.18V204.962C554.185 206.548 554.475 207.909 555.055 209.045C555.635 210.17 556.446 211.034 557.487 211.638C558.529 212.23 559.748 212.526 561.145 212.526C562.08 212.526 562.926 212.395 563.684 212.135C564.442 211.863 565.098 211.466 565.655 210.945C566.211 210.424 566.631 209.779 566.915 209.01L572.917 209.685C572.538 211.271 571.816 212.656 570.751 213.839C569.697 215.011 568.348 215.923 566.702 216.574C565.057 217.213 563.175 217.533 561.056 217.533ZM600.176 196.936L594.317 197.575C594.151 196.983 593.861 196.427 593.447 195.906C593.044 195.385 592.5 194.965 591.813 194.646C591.127 194.326 590.286 194.166 589.292 194.166C587.954 194.166 586.83 194.456 585.919 195.036C585.019 195.616 584.575 196.368 584.587 197.291C584.575 198.084 584.865 198.729 585.457 199.227C586.061 199.724 587.055 200.132 588.44 200.452L593.092 201.446C595.672 202.002 597.59 202.884 598.845 204.092C600.111 205.299 600.75 206.879 600.762 208.832C600.75 210.549 600.247 212.064 599.253 213.378C598.271 214.68 596.903 215.698 595.151 216.432C593.4 217.166 591.387 217.533 589.115 217.533C585.776 217.533 583.089 216.834 581.053 215.438C579.017 214.029 577.804 212.07 577.414 209.56L583.681 208.957C583.965 210.188 584.569 211.117 585.492 211.744C586.416 212.372 587.617 212.685 589.097 212.685C590.624 212.685 591.849 212.372 592.772 211.744C593.707 211.117 594.175 210.342 594.175 209.418C594.175 208.637 593.873 207.992 593.269 207.483C592.677 206.974 591.754 206.583 590.499 206.311L585.847 205.335C583.231 204.79 581.296 203.873 580.041 202.582C578.787 201.28 578.165 199.635 578.177 197.646C578.165 195.965 578.621 194.509 579.544 193.278C580.479 192.036 581.776 191.077 583.433 190.402C585.102 189.715 587.025 189.372 589.203 189.372C592.399 189.372 594.915 190.053 596.749 191.414C598.596 192.775 599.738 194.616 600.176 196.936Z" fill="white"/>
<defs>
<linearGradient id="paint0_linear_2_301" x1="306" y1="-26" x2="966" y2="237.5" gradientUnits="userSpaceOnUse">
<stop offset="0.0833333" stop-color="#E89900"/>
<stop offset="0.145833" stop-color="white" stop-opacity="0"/>
</linearGradient>
<linearGradient id="paint1_linear_2_301" x1="374.5" y1="-54" x2="584.5" y2="37" gradientUnits="userSpaceOnUse">
<stop stop-color="white" stop-opacity="0"/>
<stop offset="0.0001" stop-color="white"/>
</linearGradient>
<linearGradient id="paint2_linear_2_301" x1="283" y1="60.5" x2="275.5" y2="154" gradientUnits="userSpaceOnUse">
<stop stop-color="#F4F1EC"/>
<stop offset="0.0001" stop-color="#F4F1EC" stop-opacity="0"/>
</linearGradient>
</defs>
</svg>
