<svg width="514" height="119" viewBox="0 0 514 119" fill="none" xmlns="http://www.w3.org/2000/svg">
<path d="M30.696 0.272726H39.3068V26.7216C39.3068 29.6913 38.5975 32.2898 37.179 34.517C35.7737 36.7443 33.8049 38.4811 31.2727 39.7273C28.7405 40.9602 25.7907 41.5767 22.4233 41.5767C19.0426 41.5767 16.0862 40.9602 13.554 39.7273C11.0218 38.4811 9.05303 36.7443 7.64773 34.517C6.24242 32.2898 5.53977 29.6913 5.53977 26.7216V0.272726H14.1506V25.9858C14.1506 27.5369 14.4886 28.9157 15.1648 30.1222C15.8542 31.3286 16.822 32.2765 18.0682 32.9659C19.3144 33.6553 20.7661 34 22.4233 34C24.0938 34 25.5455 33.6553 26.7784 32.9659C28.0246 32.2765 28.9858 31.3286 29.6619 30.1222C30.3513 28.9157 30.696 27.5369 30.696 25.9858V0.272726ZM54.7038 23.3409V41H46.2322V10.4545H54.3061V15.8438H54.6641C55.3402 14.0672 56.4737 12.6619 58.0646 11.6278C59.6555 10.5805 61.5845 10.0568 63.8516 10.0568C65.9728 10.0568 67.8222 10.5208 69.3999 11.4489C70.9775 12.3769 72.2038 13.7027 73.0788 15.4261C73.9538 17.1364 74.3913 19.178 74.3913 21.5511V41H65.9197V23.0625C65.933 21.1932 65.4557 19.7348 64.4879 18.6875C63.5201 17.6269 62.1877 17.0966 60.4908 17.0966C59.3506 17.0966 58.343 17.3419 57.468 17.8324C56.6063 18.3229 55.9302 19.0388 55.4396 19.9801C54.9624 20.9081 54.7171 22.0284 54.7038 23.3409ZM89.5398 0.272726V41H81.0682V0.272726H89.5398ZM110.127 41.5966C107.038 41.5966 104.367 40.9403 102.113 39.6278C99.8724 38.3021 98.1423 36.4593 96.9226 34.0994C95.7029 31.7263 95.093 28.9754 95.093 25.8466C95.093 22.6913 95.7029 19.9337 96.9226 17.5739C98.1423 15.2008 99.8724 13.358 102.113 12.0455C104.367 10.7197 107.038 10.0568 110.127 10.0568C113.216 10.0568 115.881 10.7197 118.121 12.0455C120.375 13.358 122.112 15.2008 123.332 17.5739C124.551 19.9337 125.161 22.6913 125.161 25.8466C125.161 28.9754 124.551 31.7263 123.332 34.0994C122.112 36.4593 120.375 38.3021 118.121 39.6278C115.881 40.9403 113.216 41.5966 110.127 41.5966ZM110.167 35.0341C111.572 35.0341 112.746 34.6364 113.687 33.8409C114.628 33.0322 115.337 31.9318 115.815 30.5398C116.305 29.1477 116.55 27.5634 116.55 25.7869C116.55 24.0104 116.305 22.4261 115.815 21.0341C115.337 19.642 114.628 18.5417 113.687 17.733C112.746 16.9242 111.572 16.5199 110.167 16.5199C108.748 16.5199 107.555 16.9242 106.587 17.733C105.633 18.5417 104.91 19.642 104.42 21.0341C103.942 22.4261 103.704 24.0104 103.704 25.7869C103.704 27.5634 103.942 29.1477 104.42 30.5398C104.91 31.9318 105.633 33.0322 106.587 33.8409C107.555 34.6364 108.748 35.0341 110.167 35.0341ZM144.471 41.5966C141.342 41.5966 138.651 40.9337 136.397 39.608C134.156 38.2689 132.433 36.4129 131.227 34.0398C130.033 31.6667 129.437 28.9356 129.437 25.8466C129.437 22.7178 130.04 19.9735 131.246 17.6136C132.466 15.2405 134.196 13.3911 136.437 12.0653C138.677 10.7263 141.342 10.0568 144.431 10.0568C147.096 10.0568 149.429 10.5407 151.431 11.5085C153.433 12.4763 155.017 13.8352 156.184 15.5852C157.351 17.3352 157.994 19.3902 158.113 21.75H150.119C149.893 20.2254 149.297 18.9991 148.329 18.071C147.374 17.1297 146.121 16.6591 144.57 16.6591C143.258 16.6591 142.111 17.017 141.13 17.733C140.162 18.4356 139.406 19.4631 138.863 20.8153C138.319 22.1676 138.048 23.8049 138.048 25.7273C138.048 27.6761 138.313 29.3333 138.843 30.6989C139.387 32.0644 140.149 33.1051 141.13 33.821C142.111 34.5369 143.258 34.8949 144.57 34.8949C145.538 34.8949 146.406 34.696 147.175 34.2983C147.958 33.9006 148.601 33.3239 149.104 32.5682C149.621 31.7992 149.96 30.8778 150.119 29.804H158.113C157.98 32.1373 157.344 34.1922 156.204 35.9688C155.077 37.732 153.519 39.1108 151.531 40.1051C149.542 41.0994 147.189 41.5966 144.471 41.5966ZM171.213 32.2102L171.233 22.0483H172.466L182.25 10.4545H191.974L178.83 25.8068H176.821L171.213 32.2102ZM163.537 41V0.272726H172.009V41H163.537ZM182.628 41L173.639 27.696L179.287 21.7102L192.551 41H182.628ZM214.322 52.4545C213.248 52.4545 212.24 52.3684 211.299 52.196C210.371 52.0369 209.602 51.8314 208.992 51.5795L210.901 45.2557C211.896 45.5606 212.79 45.7263 213.586 45.7528C214.395 45.7794 215.091 45.5938 215.674 45.196C216.271 44.7983 216.754 44.1222 217.126 43.1676L217.623 41.875L206.665 10.4545H215.575L221.898 32.8864H222.217L228.6 10.4545H237.569L225.697 44.3011C225.127 45.9451 224.351 47.3769 223.37 48.5966C222.402 49.8295 221.176 50.7775 219.691 51.4403C218.206 52.1165 216.416 52.4545 214.322 52.4545ZM254.721 41.5966C251.632 41.5966 248.96 40.9403 246.707 39.6278C244.466 38.3021 242.736 36.4593 241.516 34.0994C240.297 31.7263 239.687 28.9754 239.687 25.8466C239.687 22.6913 240.297 19.9337 241.516 17.5739C242.736 15.2008 244.466 13.358 246.707 12.0455C248.96 10.7197 251.632 10.0568 254.721 10.0568C257.81 10.0568 260.475 10.7197 262.715 12.0455C264.969 13.358 266.706 15.2008 267.925 17.5739C269.145 19.9337 269.755 22.6913 269.755 25.8466C269.755 28.9754 269.145 31.7263 267.925 34.0994C266.706 36.4593 264.969 38.3021 262.715 39.6278C260.475 40.9403 257.81 41.5966 254.721 41.5966ZM254.761 35.0341C256.166 35.0341 257.339 34.6364 258.281 33.8409C259.222 33.0322 259.931 31.9318 260.408 30.5398C260.899 29.1477 261.144 27.5634 261.144 25.7869C261.144 24.0104 260.899 22.4261 260.408 21.0341C259.931 19.642 259.222 18.5417 258.281 17.733C257.339 16.9242 256.166 16.5199 254.761 16.5199C253.342 16.5199 252.149 16.9242 251.181 17.733C250.227 18.5417 249.504 19.642 249.013 21.0341C248.536 22.4261 248.298 24.0104 248.298 25.7869C248.298 27.5634 248.536 29.1477 249.013 30.5398C249.504 31.9318 250.227 33.0322 251.181 33.8409C252.149 34.6364 253.342 35.0341 254.761 35.0341ZM294.852 27.9943V10.4545H303.323V41H295.19V35.4517H294.871C294.182 37.2415 293.035 38.6799 291.431 39.767C289.84 40.8542 287.898 41.3977 285.604 41.3977C283.563 41.3977 281.766 40.9337 280.215 40.0057C278.664 39.0777 277.451 37.7585 276.576 36.0483C275.714 34.3381 275.277 32.2898 275.263 29.9034V10.4545H283.735V28.392C283.748 30.1951 284.232 31.6203 285.187 32.6676C286.141 33.715 287.421 34.2386 289.025 34.2386C290.046 34.2386 291 34.0066 291.888 33.5426C292.777 33.0653 293.493 32.3627 294.036 31.4347C294.593 30.5066 294.865 29.3598 294.852 27.9943ZM310.099 41V10.4545H318.312V15.7841H318.631C319.188 13.8883 320.122 12.4564 321.435 11.4886C322.747 10.5076 324.259 10.017 325.969 10.017C326.393 10.017 326.85 10.0436 327.341 10.0966C327.831 10.1496 328.262 10.2225 328.634 10.3153V17.8324C328.236 17.7131 327.686 17.607 326.983 17.5142C326.28 17.4214 325.637 17.375 325.054 17.375C323.808 17.375 322.694 17.6468 321.713 18.1903C320.745 18.7206 319.976 19.4631 319.406 20.4176C318.849 21.3722 318.571 22.4725 318.571 23.7188V41H310.099ZM5.38068 76.4545H13.8523V108.511C13.8523 110.871 13.3883 112.78 12.4602 114.239C11.5322 115.697 10.1998 116.764 8.46307 117.44C6.73958 118.116 4.67803 118.455 2.27841 118.455C1.98674 118.455 1.70833 118.448 1.44318 118.435C1.16477 118.435 0.873106 118.428 0.568182 118.415V111.793C0.793561 111.806 0.992424 111.812 1.16477 111.812C1.32386 111.826 1.49621 111.832 1.68182 111.832C3.04735 111.832 4.00189 111.541 4.54545 110.957C5.10227 110.387 5.38068 109.526 5.38068 108.372V76.4545ZM9.59659 72.517C8.35038 72.517 7.27652 72.0994 6.375 71.2642C5.47348 70.4157 5.02273 69.4015 5.02273 68.2216C5.02273 67.0549 5.47348 66.054 6.375 65.2188C7.27652 64.3703 8.35038 63.946 9.59659 63.946C10.8693 63.946 11.9498 64.3703 12.8381 65.2188C13.7396 66.054 14.1903 67.0549 14.1903 68.2216C14.1903 69.4015 13.7396 70.4157 12.8381 71.2642C11.9498 72.0994 10.8693 72.517 9.59659 72.517ZM34.4396 107.597C31.3506 107.597 28.6792 106.94 26.4254 105.628C24.1849 104.302 22.4548 102.459 21.2351 100.099C20.0154 97.7263 19.4055 94.9754 19.4055 91.8466C19.4055 88.6913 20.0154 85.9337 21.2351 83.5739C22.4548 81.2008 24.1849 79.358 26.4254 78.0455C28.6792 76.7197 31.3506 76.0568 34.4396 76.0568C37.5286 76.0568 40.1934 76.7197 42.4339 78.0455C44.6877 79.358 46.4245 81.2008 47.6442 83.5739C48.8639 85.9337 49.4737 88.6913 49.4737 91.8466C49.4737 94.9754 48.8639 97.7263 47.6442 100.099C46.4245 102.459 44.6877 104.302 42.4339 105.628C40.1934 106.94 37.5286 107.597 34.4396 107.597ZM34.4794 101.034C35.8847 101.034 37.058 100.636 37.9993 99.8409C38.9406 99.0322 39.6499 97.9318 40.1271 96.5398C40.6177 95.1477 40.8629 93.5634 40.8629 91.7869C40.8629 90.0104 40.6177 88.4261 40.1271 87.0341C39.6499 85.642 38.9406 84.5417 37.9993 83.733C37.058 82.9242 35.8847 82.5199 34.4794 82.5199C33.0608 82.5199 31.8677 82.9242 30.8999 83.733C29.9453 84.5417 29.2228 85.642 28.7322 87.0341C28.255 88.4261 28.0163 90.0104 28.0163 91.7869C28.0163 93.5634 28.255 95.1477 28.7322 96.5398C29.2228 97.9318 29.9453 99.0322 30.8999 99.8409C31.8677 100.636 33.0608 101.034 34.4794 101.034ZM55.1413 107V66.2727H63.6129V81.5852H63.8714C64.2427 80.7633 64.7796 79.928 65.4822 79.0795C66.1982 78.2178 67.1262 77.5019 68.2663 76.9318C69.4197 76.3485 70.8516 76.0568 72.5618 76.0568C74.7891 76.0568 76.844 76.6402 78.7266 77.8068C80.6091 78.9602 82.1139 80.7036 83.2408 83.0369C84.3677 85.357 84.9311 88.267 84.9311 91.767C84.9311 95.1742 84.3809 98.0511 83.2805 100.398C82.1934 102.731 80.7086 104.501 78.826 105.707C76.9567 106.901 74.862 107.497 72.5419 107.497C70.898 107.497 69.4993 107.225 68.3459 106.682C67.2057 106.138 66.2711 105.455 65.5419 104.634C64.8127 103.798 64.2559 102.956 63.8714 102.108H63.4936V107H55.1413ZM63.4339 91.7273C63.4339 93.5436 63.6858 95.1278 64.1896 96.4801C64.6934 97.8324 65.4226 98.8864 66.3771 99.642C67.3317 100.384 68.4917 100.756 69.8572 100.756C71.236 100.756 72.4027 100.378 73.3572 99.6222C74.3118 98.8532 75.0343 97.7926 75.5249 96.4403C76.0286 95.0748 76.2805 93.5038 76.2805 91.7273C76.2805 89.964 76.0353 88.4129 75.5447 87.0739C75.0542 85.7348 74.3317 84.6875 73.3771 83.9318C72.4226 83.1761 71.2493 82.7983 69.8572 82.7983C68.4785 82.7983 67.3118 83.1629 66.3572 83.892C65.416 84.6212 64.6934 85.6553 64.1896 86.9943C63.6858 88.3333 63.4339 89.911 63.4339 91.7273ZM100.706 66.2727L99.9304 94.7898H92.652L91.8565 66.2727H100.706ZM96.2912 107.517C94.9787 107.517 93.8518 107.053 92.9105 106.125C91.9692 105.184 91.5052 104.057 91.5185 102.744C91.5052 101.445 91.9692 100.331 92.9105 99.4034C93.8518 98.4754 94.9787 98.0114 96.2912 98.0114C97.5507 98.0114 98.6577 98.4754 99.6122 99.4034C100.567 100.331 101.051 101.445 101.064 102.744C101.051 103.619 100.819 104.421 100.368 105.151C99.9304 105.866 99.3537 106.443 98.6378 106.881C97.9219 107.305 97.1397 107.517 96.2912 107.517Z" fill="#0A093D"/>
<path d="M357.23 41.4972C354.91 41.4972 352.809 40.9006 350.926 39.7074C349.057 38.5009 347.572 36.7311 346.472 34.3977C345.384 32.0511 344.841 29.1742 344.841 25.767C344.841 22.267 345.404 19.357 346.531 17.0369C347.658 14.7036 349.156 12.9602 351.026 11.8068C352.908 10.6402 354.97 10.0568 357.21 10.0568C358.92 10.0568 360.346 10.3485 361.486 10.9318C362.639 11.5019 363.567 12.2178 364.27 13.0795C364.986 13.928 365.529 14.7633 365.901 15.5852H366.159V0.272726H374.611V41H366.259V36.108H365.901C365.503 36.9564 364.939 37.7983 364.21 38.6335C363.494 39.4555 362.56 40.1383 361.406 40.6818C360.266 41.2254 358.874 41.4972 357.23 41.4972ZM359.915 34.7557C361.28 34.7557 362.434 34.3845 363.375 33.642C364.33 32.8864 365.059 31.8324 365.562 30.4801C366.08 29.1278 366.338 27.5436 366.338 25.7273C366.338 23.911 366.086 22.3333 365.582 20.9943C365.079 19.6553 364.349 18.6212 363.395 17.892C362.44 17.1629 361.28 16.7983 359.915 16.7983C358.523 16.7983 357.349 17.1761 356.395 17.9318C355.44 18.6875 354.718 19.7348 354.227 21.0739C353.737 22.4129 353.491 23.964 353.491 25.7273C353.491 27.5038 353.737 29.0748 354.227 30.4403C354.731 31.7926 355.454 32.8532 356.395 33.6222C357.349 34.3778 358.523 34.7557 359.915 34.7557ZM381.576 41V10.4545H389.789V15.7841H390.107C390.664 13.8883 391.599 12.4564 392.911 11.4886C394.224 10.5076 395.735 10.017 397.445 10.017C397.87 10.017 398.327 10.0436 398.817 10.0966C399.308 10.1496 399.739 10.2225 400.11 10.3153V17.8324C399.712 17.7131 399.162 17.607 398.46 17.5142C397.757 17.4214 397.114 17.375 396.531 17.375C395.284 17.375 394.171 17.6468 393.19 18.1903C392.222 18.7206 391.453 19.4631 390.883 20.4176C390.326 21.3722 390.048 22.4725 390.048 23.7188V41H381.576ZM416.989 41.5966C413.847 41.5966 411.142 40.9602 408.875 39.6875C406.621 38.4015 404.884 36.5852 403.665 34.2386C402.445 31.8788 401.835 29.0881 401.835 25.8665C401.835 22.7244 402.445 19.9669 403.665 17.5938C404.884 15.2206 406.601 13.3712 408.815 12.0455C411.043 10.7197 413.654 10.0568 416.651 10.0568C418.666 10.0568 420.542 10.3816 422.278 11.0312C424.028 11.6676 425.553 12.6288 426.852 13.9148C428.165 15.2008 429.186 16.8182 429.915 18.767C430.644 20.7027 431.009 22.9697 431.009 25.5682V27.8949H405.216V22.6449H423.034C423.034 21.4252 422.769 20.3447 422.239 19.4034C421.708 18.4621 420.973 17.7263 420.031 17.196C419.103 16.6525 418.023 16.3807 416.79 16.3807C415.504 16.3807 414.364 16.679 413.369 17.2756C412.388 17.8589 411.619 18.6477 411.062 19.642C410.506 20.6231 410.221 21.7169 410.207 22.9233V27.9148C410.207 29.4261 410.486 30.732 411.043 31.8324C411.613 32.9328 412.415 33.7812 413.449 34.3778C414.483 34.9744 415.709 35.2727 417.128 35.2727C418.069 35.2727 418.931 35.1402 419.713 34.875C420.495 34.6098 421.165 34.2121 421.722 33.6818C422.278 33.1515 422.703 32.5019 422.994 31.733L430.83 32.25C430.432 34.1326 429.616 35.7765 428.384 37.1818C427.164 38.5739 425.586 39.661 423.651 40.4432C421.728 41.2121 419.508 41.5966 416.989 41.5966ZM445.247 41.5767C443.298 41.5767 441.562 41.2386 440.037 40.5625C438.512 39.8731 437.306 38.8589 436.418 37.5199C435.543 36.1676 435.105 34.4839 435.105 32.4688C435.105 30.7718 435.417 29.3466 436.04 28.1932C436.663 27.0398 437.511 26.1117 438.585 25.4091C439.659 24.7064 440.879 24.1761 442.244 23.8182C443.623 23.4602 445.068 23.2083 446.58 23.0625C448.356 22.8769 449.788 22.7045 450.875 22.5455C451.962 22.3731 452.751 22.1212 453.241 21.7898C453.732 21.4583 453.977 20.9678 453.977 20.3182V20.1989C453.977 18.9394 453.58 17.965 452.784 17.2756C452.002 16.5862 450.888 16.2415 449.443 16.2415C447.919 16.2415 446.705 16.5795 445.804 17.2557C444.902 17.9186 444.306 18.7538 444.014 19.7614L436.179 19.125C436.577 17.2689 437.359 15.6648 438.526 14.3125C439.692 12.947 441.197 11.8996 443.04 11.1705C444.896 10.428 447.044 10.0568 449.483 10.0568C451.18 10.0568 452.804 10.2557 454.355 10.6534C455.92 11.0511 457.305 11.6676 458.511 12.5028C459.731 13.3381 460.692 14.4119 461.395 15.7244C462.098 17.0237 462.449 18.5814 462.449 20.3977V41H454.415V36.7642H454.176C453.686 37.7188 453.029 38.5606 452.207 39.2898C451.385 40.0057 450.398 40.5691 449.244 40.9801C448.091 41.3778 446.759 41.5767 445.247 41.5767ZM447.673 35.7301C448.92 35.7301 450.02 35.4848 450.974 34.9943C451.929 34.4905 452.678 33.8144 453.222 32.9659C453.765 32.1174 454.037 31.1562 454.037 30.0824V26.8409C453.772 27.0133 453.407 27.1723 452.943 27.3182C452.492 27.4508 451.982 27.5767 451.412 27.696C450.842 27.8021 450.272 27.9015 449.702 27.9943C449.132 28.0739 448.615 28.1468 448.151 28.2131C447.156 28.3589 446.288 28.5909 445.545 28.9091C444.803 29.2273 444.226 29.6581 443.815 30.2017C443.404 30.732 443.199 31.3949 443.199 32.1903C443.199 33.3438 443.616 34.2254 444.452 34.8352C445.3 35.4318 446.374 35.7301 447.673 35.7301ZM469.021 41V10.4545H477.095V15.8438H477.453C478.089 14.054 479.15 12.642 480.635 11.608C482.12 10.5739 483.896 10.0568 485.964 10.0568C488.059 10.0568 489.842 10.5805 491.314 11.6278C492.786 12.6619 493.767 14.0672 494.257 15.8438H494.575C495.198 14.0938 496.325 12.6951 497.956 11.6477C499.6 10.5871 501.542 10.0568 503.783 10.0568C506.633 10.0568 508.946 10.965 510.723 12.7812C512.513 14.5843 513.408 17.143 513.408 20.4574V41H504.956V22.1278C504.956 20.4309 504.505 19.1581 503.604 18.3097C502.702 17.4612 501.575 17.0369 500.223 17.0369C498.685 17.0369 497.485 17.5275 496.624 18.5085C495.762 19.4763 495.331 20.7557 495.331 22.3466V41H487.118V21.9489C487.118 20.4508 486.687 19.2576 485.825 18.3693C484.977 17.4811 483.857 17.0369 482.464 17.0369C481.523 17.0369 480.675 17.2756 479.919 17.7528C479.177 18.2169 478.587 18.8731 478.149 19.7216C477.712 20.5568 477.493 21.5379 477.493 22.6648V41H469.021Z" fill="#217BF4"/>
<path d="M357.23 41.4972C354.91 41.4972 352.809 40.9006 350.926 39.7074C349.057 38.5009 347.572 36.7311 346.472 34.3977C345.384 32.0511 344.841 29.1742 344.841 25.767C344.841 22.267 345.404 19.357 346.531 17.0369C347.658 14.7036 349.156 12.9602 351.026 11.8068C352.908 10.6402 354.97 10.0568 357.21 10.0568C358.92 10.0568 360.346 10.3485 361.486 10.9318C362.639 11.5019 363.567 12.2178 364.27 13.0795C364.986 13.928 365.529 14.7633 365.901 15.5852H366.159V0.272726H374.611V41H366.259V36.108H365.901C365.503 36.9564 364.939 37.7983 364.21 38.6335C363.494 39.4555 362.56 40.1383 361.406 40.6818C360.266 41.2254 358.874 41.4972 357.23 41.4972ZM359.915 34.7557C361.28 34.7557 362.434 34.3845 363.375 33.642C364.33 32.8864 365.059 31.8324 365.562 30.4801C366.08 29.1278 366.338 27.5436 366.338 25.7273C366.338 23.911 366.086 22.3333 365.582 20.9943C365.079 19.6553 364.349 18.6212 363.395 17.892C362.44 17.1629 361.28 16.7983 359.915 16.7983C358.523 16.7983 357.349 17.1761 356.395 17.9318C355.44 18.6875 354.718 19.7348 354.227 21.0739C353.737 22.4129 353.491 23.964 353.491 25.7273C353.491 27.5038 353.737 29.0748 354.227 30.4403C354.731 31.7926 355.454 32.8532 356.395 33.6222C357.349 34.3778 358.523 34.7557 359.915 34.7557ZM381.576 41V10.4545H389.789V15.7841H390.107C390.664 13.8883 391.599 12.4564 392.911 11.4886C394.224 10.5076 395.735 10.017 397.445 10.017C397.87 10.017 398.327 10.0436 398.817 10.0966C399.308 10.1496 399.739 10.2225 400.11 10.3153V17.8324C399.712 17.7131 399.162 17.607 398.46 17.5142C397.757 17.4214 397.114 17.375 396.531 17.375C395.284 17.375 394.171 17.6468 393.19 18.1903C392.222 18.7206 391.453 19.4631 390.883 20.4176C390.326 21.3722 390.048 22.4725 390.048 23.7188V41H381.576ZM416.989 41.5966C413.847 41.5966 411.142 40.9602 408.875 39.6875C406.621 38.4015 404.884 36.5852 403.665 34.2386C402.445 31.8788 401.835 29.0881 401.835 25.8665C401.835 22.7244 402.445 19.9669 403.665 17.5938C404.884 15.2206 406.601 13.3712 408.815 12.0455C411.043 10.7197 413.654 10.0568 416.651 10.0568C418.666 10.0568 420.542 10.3816 422.278 11.0312C424.028 11.6676 425.553 12.6288 426.852 13.9148C428.165 15.2008 429.186 16.8182 429.915 18.767C430.644 20.7027 431.009 22.9697 431.009 25.5682V27.8949H405.216V22.6449H423.034C423.034 21.4252 422.769 20.3447 422.239 19.4034C421.708 18.4621 420.973 17.7263 420.031 17.196C419.103 16.6525 418.023 16.3807 416.79 16.3807C415.504 16.3807 414.364 16.679 413.369 17.2756C412.388 17.8589 411.619 18.6477 411.062 19.642C410.506 20.6231 410.221 21.7169 410.207 22.9233V27.9148C410.207 29.4261 410.486 30.732 411.043 31.8324C411.613 32.9328 412.415 33.7812 413.449 34.3778C414.483 34.9744 415.709 35.2727 417.128 35.2727C418.069 35.2727 418.931 35.1402 419.713 34.875C420.495 34.6098 421.165 34.2121 421.722 33.6818C422.278 33.1515 422.703 32.5019 422.994 31.733L430.83 32.25C430.432 34.1326 429.616 35.7765 428.384 37.1818C427.164 38.5739 425.586 39.661 423.651 40.4432C421.728 41.2121 419.508 41.5966 416.989 41.5966ZM445.247 41.5767C443.298 41.5767 441.562 41.2386 440.037 40.5625C438.512 39.8731 437.306 38.8589 436.418 37.5199C435.543 36.1676 435.105 34.4839 435.105 32.4688C435.105 30.7718 435.417 29.3466 436.04 28.1932C436.663 27.0398 437.511 26.1117 438.585 25.4091C439.659 24.7064 440.879 24.1761 442.244 23.8182C443.623 23.4602 445.068 23.2083 446.58 23.0625C448.356 22.8769 449.788 22.7045 450.875 22.5455C451.962 22.3731 452.751 22.1212 453.241 21.7898C453.732 21.4583 453.977 20.9678 453.977 20.3182V20.1989C453.977 18.9394 453.58 17.965 452.784 17.2756C452.002 16.5862 450.888 16.2415 449.443 16.2415C447.919 16.2415 446.705 16.5795 445.804 17.2557C444.902 17.9186 444.306 18.7538 444.014 19.7614L436.179 19.125C436.577 17.2689 437.359 15.6648 438.526 14.3125C439.692 12.947 441.197 11.8996 443.04 11.1705C444.896 10.428 447.044 10.0568 449.483 10.0568C451.18 10.0568 452.804 10.2557 454.355 10.6534C455.92 11.0511 457.305 11.6676 458.511 12.5028C459.731 13.3381 460.692 14.4119 461.395 15.7244C462.098 17.0237 462.449 18.5814 462.449 20.3977V41H454.415V36.7642H454.176C453.686 37.7188 453.029 38.5606 452.207 39.2898C451.385 40.0057 450.398 40.5691 449.244 40.9801C448.091 41.3778 446.759 41.5767 445.247 41.5767ZM447.673 35.7301C448.92 35.7301 450.02 35.4848 450.974 34.9943C451.929 34.4905 452.678 33.8144 453.222 32.9659C453.765 32.1174 454.037 31.1562 454.037 30.0824V26.8409C453.772 27.0133 453.407 27.1723 452.943 27.3182C452.492 27.4508 451.982 27.5767 451.412 27.696C450.842 27.8021 450.272 27.9015 449.702 27.9943C449.132 28.0739 448.615 28.1468 448.151 28.2131C447.156 28.3589 446.288 28.5909 445.545 28.9091C444.803 29.2273 444.226 29.6581 443.815 30.2017C443.404 30.732 443.199 31.3949 443.199 32.1903C443.199 33.3438 443.616 34.2254 444.452 34.8352C445.3 35.4318 446.374 35.7301 447.673 35.7301ZM469.021 41V10.4545H477.095V15.8438H477.453C478.089 14.054 479.15 12.642 480.635 11.608C482.12 10.5739 483.896 10.0568 485.964 10.0568C488.059 10.0568 489.842 10.5805 491.314 11.6278C492.786 12.6619 493.767 14.0672 494.257 15.8438H494.575C495.198 14.0938 496.325 12.6951 497.956 11.6477C499.6 10.5871 501.542 10.0568 503.783 10.0568C506.633 10.0568 508.946 10.965 510.723 12.7812C512.513 14.5843 513.408 17.143 513.408 20.4574V41H504.956V22.1278C504.956 20.4309 504.505 19.1581 503.604 18.3097C502.702 17.4612 501.575 17.0369 500.223 17.0369C498.685 17.0369 497.485 17.5275 496.624 18.5085C495.762 19.4763 495.331 20.7557 495.331 22.3466V41H487.118V21.9489C487.118 20.4508 486.687 19.2576 485.825 18.3693C484.977 17.4811 483.857 17.0369 482.464 17.0369C481.523 17.0369 480.675 17.2756 479.919 17.7528C479.177 18.2169 478.587 18.8731 478.149 19.7216C477.712 20.5568 477.493 21.5379 477.493 22.6648V41H469.021Z" fill="url(#paint0_linear_30_10)" fill-opacity="0.2"/>
<defs>
<linearGradient id="paint0_linear_30_10" x1="1038.5" y1="120" x2="50.5" y2="120" gradientUnits="userSpaceOnUse">
<stop offset="0.135417" stop-color="#D6EEFF"/>
<stop offset="1" stop-color="#56B2F4" stop-opacity="0"/>
</linearGradient>
</defs>
</svg>
